<svg width="20" height="20" viewBox="0 0 20 20" fill="none" xmlns="http://www.w3.org/2000/svg">
<path fill-rule="evenodd" clip-rule="evenodd" d="M3.33337 10C3.33337 9.5398 3.70647 9.16671 4.16671 9.16671H15.8334C16.2936 9.16671 16.6667 9.5398 16.6667 10C16.6667 10.4603 16.2936 10.8334 15.8334 10.8334H4.16671C3.70647 10.8334 3.33337 10.4603 3.33337 10Z" fill="#111827"/>
<path fill-rule="evenodd" clip-rule="evenodd" d="M3.57745 9.41079C3.90289 9.08535 4.43053 9.08535 4.75596 9.41079L8.0893 12.7441C8.41473 13.0696 8.41473 13.5972 8.0893 13.9226C7.76386 14.2481 7.23622 14.2481 6.91079 13.9226L3.57745 10.5893C3.25201 10.2639 3.25201 9.73622 3.57745 9.41079Z" fill="#111827"/>
<path fill-rule="evenodd" clip-rule="evenodd" d="M8.0893 6.07745C8.41473 6.40289 8.41473 6.93053 8.0893 7.25596L4.75596 10.5893C4.43053 10.9147 3.90289 10.9147 3.57745 10.5893C3.25201 10.2639 3.25201 9.73622 3.57745 9.41079L6.91079 6.07745C7.23622 5.75201 7.76386 5.75201 8.0893 6.07745Z" fill="#111827"/>
</svg>
