<svg width="20" height="20" viewBox="0 0 20 20" fill="none" xmlns="http://www.w3.org/2000/svg">
<path fill-rule="evenodd" clip-rule="evenodd" d="M3.33337 10C3.33337 9.5398 3.70647 9.16671 4.16671 9.16671H15.8334C16.2936 9.16671 16.6667 9.5398 16.6667 10C16.6667 10.4603 16.2936 10.8334 15.8334 10.8334H4.16671C3.70647 10.8334 3.33337 10.4603 3.33337 10Z" fill="white"/>
<path fill-rule="evenodd" clip-rule="evenodd" d="M16.4226 9.41079C16.7481 9.73622 16.7481 10.2639 16.4226 10.5893L13.0893 13.9226C12.7639 14.2481 12.2362 14.2481 11.9108 13.9226C11.5853 13.5972 11.5853 13.0696 11.9108 12.7441L15.2441 9.41079C15.5696 9.08535 16.0972 9.08535 16.4226 9.41079Z" fill="white"/>
<path fill-rule="evenodd" clip-rule="evenodd" d="M11.9108 6.07745C12.2362 5.75201 12.7639 5.75201 13.0893 6.07745L16.4226 9.41079C16.7481 9.73622 16.7481 10.2639 16.4226 10.5893C16.0972 10.9147 15.5696 10.9147 15.2441 10.5893L11.9108 7.25596C11.5853 6.93053 11.5853 6.40289 11.9108 6.07745Z" fill="white"/>
</svg>
