<svg width="20" height="20" viewBox="0 0 20 20" fill="none" xmlns="http://www.w3.org/2000/svg">
<path fill-rule="evenodd" clip-rule="evenodd" d="M3.33333 10C3.33333 9.5398 3.70643 9.16671 4.16667 9.16671H15.8333C16.2936 9.16671 16.6667 9.5398 16.6667 10C16.6667 10.4603 16.2936 10.8334 15.8333 10.8334H4.16667C3.70643 10.8334 3.33333 10.4603 3.33333 10Z" fill="#111827"/>
<path fill-rule="evenodd" clip-rule="evenodd" d="M3.57741 9.41079C3.90285 9.08535 4.43048 9.08535 4.75592 9.41079L8.08925 12.7441C8.41469 13.0696 8.41469 13.5972 8.08925 13.9226C7.76382 14.2481 7.23618 14.2481 6.91074 13.9226L3.57741 10.5893C3.25197 10.2639 3.25197 9.73622 3.57741 9.41079Z" fill="#111827"/>
<path fill-rule="evenodd" clip-rule="evenodd" d="M8.08925 6.07745C8.41469 6.40289 8.41469 6.93053 8.08925 7.25596L4.75592 10.5893C4.43048 10.9147 3.90285 10.9147 3.57741 10.5893C3.25197 10.2639 3.25197 9.73622 3.57741 9.41079L6.91074 6.07745C7.23618 5.75201 7.76382 5.75201 8.08925 6.07745Z" fill="#111827"/>
</svg>
