<svg width="20" height="21" viewBox="0 0 20 21" fill="none" xmlns="http://www.w3.org/2000/svg">
<path fill-rule="evenodd" clip-rule="evenodd" d="M9.99984 2.7915C5.74264 2.7915 2.2915 6.24264 2.2915 10.4998C2.2915 14.757 5.74264 18.2082 9.99984 18.2082C14.257 18.2082 17.7082 14.757 17.7082 10.4998C17.7082 6.24264 14.257 2.7915 9.99984 2.7915ZM1.0415 10.4998C1.0415 5.55229 5.05229 1.5415 9.99984 1.5415C14.9474 1.5415 18.9582 5.55229 18.9582 10.4998C18.9582 15.4474 14.9474 19.4582 9.99984 19.4582C5.05229 19.4582 1.0415 15.4474 1.0415 10.4998ZM8.04263 6.85648C9.59394 5.31506 12.0969 5.31303 13.6418 6.85789L13.6432 6.8593C15.1846 8.4106 15.1867 10.9136 13.6418 12.4584L11.7918 14.3084C10.8977 15.2025 9.44362 15.2025 8.54954 14.3084C7.65546 13.4144 7.65546 11.9603 8.54954 11.0662L9.72457 9.8912C9.96865 9.64713 10.3644 9.64713 10.6085 9.89121C10.8525 10.1353 10.8525 10.531 10.6084 10.7751L9.43342 11.9501V11.9501C9.02751 12.356 9.0275 13.0186 9.43342 13.4246C9.83935 13.8305 10.502 13.8305 10.9079 13.4246L12.7579 11.5746C13.8128 10.5196 13.8151 8.80646 12.7572 7.74105C11.7022 6.68684 9.98951 6.68484 8.92434 7.74253L8.92369 7.74318L6.90845 9.75842C6.03586 10.631 6.03586 12.0436 6.90845 12.9162C7.15253 13.1603 7.15253 13.556 6.90845 13.8001C6.66437 14.0442 6.26864 14.0442 6.02457 13.8001C4.66382 12.4394 4.66382 10.2353 6.02457 8.87454L8.04263 6.85648Z" fill="#111827"/>
</svg>
