<svg width="20" height="20" viewBox="0 0 20 20" fill="none" xmlns="http://www.w3.org/2000/svg">
<path fill-rule="evenodd" clip-rule="evenodd" d="M6.7128 1.71272C7.14257 1.28295 7.72547 1.0415 8.33325 1.0415H11.6666C12.2744 1.0415 12.8573 1.28295 13.287 1.71272C13.7168 2.14249 13.9583 2.72538 13.9583 3.33317V4.37484H15.8333C16.441 4.37484 17.0239 4.61628 17.4537 5.04605C17.8835 5.47582 18.1249 6.05872 18.1249 6.6665V11.0311C18.1251 11.0407 18.1251 11.0503 18.1249 11.0598V14.9998C18.1249 15.6076 17.8835 16.1905 17.4537 16.6203C17.0239 17.0501 16.441 17.2915 15.8333 17.2915H4.16659C3.5588 17.2915 2.97591 17.0501 2.54613 16.6203C2.11636 16.1905 1.87492 15.6076 1.87492 14.9998V11.0598C1.8747 11.0503 1.8747 11.0407 1.87492 11.0311V6.6665C1.87492 6.05872 2.11636 5.47582 2.54613 5.04605C2.97591 4.61628 3.5588 4.37484 4.16659 4.37484H6.04159V3.33317C6.04159 2.72538 6.28303 2.14249 6.7128 1.71272ZM7.29159 4.37484H12.7083V3.33317C12.7083 3.0569 12.5985 2.79195 12.4032 2.5966C12.2078 2.40125 11.9429 2.2915 11.6666 2.2915H8.33325C8.05699 2.2915 7.79204 2.40125 7.59669 2.5966C7.40133 2.79195 7.29159 3.0569 7.29159 3.33317V4.37484ZM4.16659 5.62484C3.89032 5.62484 3.62537 5.73458 3.43002 5.92993C3.23467 6.12528 3.12492 6.39024 3.12492 6.6665V10.6194C5.2613 11.4303 7.57763 11.8748 9.99992 11.8748C12.3498 11.8777 14.68 11.4518 16.8749 10.6193V6.6665C16.8749 6.39024 16.7652 6.12528 16.5698 5.92993C16.3745 5.73458 16.1095 5.62484 15.8333 5.62484H4.16659ZM9.99992 13.1248C12.344 13.1276 14.669 12.7297 16.8749 11.9504ZM16.8749 11.9504V14.9998C16.8749 15.2761 16.7652 15.5411 16.5698 15.7364C16.3745 15.9318 16.1095 16.0415 15.8333 16.0415H4.16659C3.89032 16.0415 3.62537 15.9318 3.43002 15.7364C3.23467 15.5411 3.12492 15.2761 3.12492 14.9998V11.9506C5.27607 12.7109 7.59003 13.1248 9.99992 13.1248M9.37492 9.99984C9.37492 9.65466 9.65474 9.37484 9.99992 9.37484H10.0083C10.3534 9.37484 10.6333 9.65466 10.6333 9.99984C10.6333 10.345 10.3534 10.6248 10.0083 10.6248H9.99992C9.65474 10.6248 9.37492 10.345 9.37492 9.99984Z" fill="#A0AEC0"/>
</svg>
