<svg width="20" height="20" viewBox="0 0 20 20" fill="none" xmlns="http://www.w3.org/2000/svg">
<path fill-rule="evenodd" clip-rule="evenodd" d="M4.99992 4.79167C4.42462 4.79167 3.95825 5.25804 3.95825 5.83333V15.8333C3.95825 16.4086 4.42462 16.875 4.99992 16.875H14.9999C15.5752 16.875 16.0416 16.4086 16.0416 15.8333V5.83333C16.0416 5.25804 15.5752 4.79167 14.9999 4.79167H4.99992ZM2.70825 5.83333C2.70825 4.56768 3.73427 3.54167 4.99992 3.54167H14.9999C16.2656 3.54167 17.2916 4.56768 17.2916 5.83333V15.8333C17.2916 17.099 16.2656 18.125 14.9999 18.125H4.99992C3.73427 18.125 2.70825 17.099 2.70825 15.8333V5.83333Z" fill="#111827"/>
<path fill-rule="evenodd" clip-rule="evenodd" d="M13.3333 1.875C13.6784 1.875 13.9583 2.15482 13.9583 2.5V5.83333C13.9583 6.17851 13.6784 6.45833 13.3333 6.45833C12.9881 6.45833 12.7083 6.17851 12.7083 5.83333V2.5C12.7083 2.15482 12.9881 1.875 13.3333 1.875Z" fill="#111827"/>
<path fill-rule="evenodd" clip-rule="evenodd" d="M6.66659 1.875C7.01176 1.875 7.29158 2.15482 7.29158 2.5V5.83333C7.29158 6.17851 7.01176 6.45833 6.66659 6.45833C6.32141 6.45833 6.04159 6.17851 6.04159 5.83333V2.5C6.04159 2.15482 6.32141 1.875 6.66659 1.875Z" fill="#111827"/>
<path fill-rule="evenodd" clip-rule="evenodd" d="M2.70825 9.16667C2.70825 8.82149 2.98807 8.54167 3.33325 8.54167H16.6666C17.0118 8.54167 17.2916 8.82149 17.2916 9.16667C17.2916 9.51184 17.0118 9.79167 16.6666 9.79167H3.33325C2.98807 9.79167 2.70825 9.51184 2.70825 9.16667Z" fill="#111827"/>
<path fill-rule="evenodd" clip-rule="evenodd" d="M8.33325 12.5C8.33325 12.0398 8.70635 11.6667 9.16658 11.6667H9.99992C10.4602 11.6667 10.8333 12.0398 10.8333 12.5C10.8333 12.9602 10.4602 13.3333 9.99992 13.3333H9.16658C8.70635 13.3333 8.33325 12.9602 8.33325 12.5Z" fill="#111827"/>
<path fill-rule="evenodd" clip-rule="evenodd" d="M9.99992 11.875C10.3451 11.875 10.6249 12.1548 10.6249 12.5V15C10.6249 15.3452 10.3451 15.625 9.99992 15.625C9.65474 15.625 9.37492 15.3452 9.37492 15V12.5C9.37492 12.1548 9.65474 11.875 9.99992 11.875Z" fill="#111827"/>
</svg>
