<svg width="20" height="20" viewBox="0 0 20 20" fill="none" xmlns="http://www.w3.org/2000/svg">
<path fill-rule="evenodd" clip-rule="evenodd" d="M1.0415 7.08331C1.0415 6.73813 1.32133 6.45831 1.6665 6.45831H12.0832C12.4283 6.45831 12.7082 6.73813 12.7082 7.08331C12.7082 7.42849 12.4283 7.70831 12.0832 7.70831H1.6665C1.32133 7.70831 1.0415 7.42849 1.0415 7.08331Z" fill="#A0AEC0"/>
<path fill-rule="evenodd" clip-rule="evenodd" d="M4.37484 13.75C4.37484 13.4048 4.65466 13.125 4.99984 13.125H6.6665C7.01168 13.125 7.2915 13.4048 7.2915 13.75C7.2915 14.0952 7.01168 14.375 6.6665 14.375H4.99984C4.65466 14.375 4.37484 14.0952 4.37484 13.75Z" fill="#A0AEC0"/>
<path fill-rule="evenodd" clip-rule="evenodd" d="M8.12484 13.75C8.12484 13.4048 8.40466 13.125 8.74984 13.125H12.0832C12.4283 13.125 12.7082 13.4048 12.7082 13.75C12.7082 14.0952 12.4283 14.375 12.0832 14.375H8.74984C8.40466 14.375 8.12484 14.0952 8.12484 13.75Z" fill="#A0AEC0"/>
<path fill-rule="evenodd" clip-rule="evenodd" d="M2.84656 4.09337C2.49234 4.4436 2.2915 5.10929 2.2915 6.57498V13.425C2.2915 14.8907 2.49234 15.5564 2.84656 15.9066C3.20324 16.2592 3.88234 16.4583 5.3665 16.4583H14.6332C16.1173 16.4583 16.7964 16.2592 17.1531 15.9066C17.5073 15.5564 17.7082 14.8907 17.7082 13.425V11.6916C17.7082 11.3465 17.988 11.0666 18.3332 11.0666C18.6783 11.0666 18.9582 11.3465 18.9582 11.6916V13.425C18.9582 14.8843 18.7882 16.0478 18.032 16.7955C17.2782 17.5407 16.1073 17.7083 14.6332 17.7083H5.3665C3.89233 17.7083 2.72143 17.5407 1.9677 16.7955C1.2115 16.0478 1.0415 14.8843 1.0415 13.425V6.57498C1.0415 5.11567 1.2115 3.95218 1.9677 3.2045C2.72143 2.45925 3.89233 2.29164 5.3665 2.29164H12.0832C12.4283 2.29164 12.7082 2.57147 12.7082 2.91664C12.7082 3.26182 12.4283 3.54164 12.0832 3.54164H5.3665C3.88234 3.54164 3.20324 3.74071 2.84656 4.09337Z" fill="#A0AEC0"/>
<path fill-rule="evenodd" clip-rule="evenodd" d="M16.4273 2.33922C16.6609 2.24248 16.9297 2.29595 17.1084 2.4747L18.7751 4.14137C19.0192 4.38545 19.0192 4.78117 18.7751 5.02525C18.531 5.26933 18.1353 5.26933 17.8912 5.02525L17.2915 4.42553V7.91664C17.2915 8.26182 17.0117 8.54164 16.6665 8.54164C16.3213 8.54164 16.0415 8.26182 16.0415 7.91664V2.91664C16.0415 2.66386 16.1938 2.43596 16.4273 2.33922Z" fill="#A0AEC0"/>
<path fill-rule="evenodd" clip-rule="evenodd" d="M17.1084 2.4747C17.3525 2.71878 17.3525 3.11451 17.1084 3.35859L15.4418 5.02525C15.1977 5.26933 14.802 5.26933 14.5579 5.02525C14.3138 4.78117 14.3138 4.38545 14.5579 4.14137L16.2246 2.4747C16.4686 2.23062 16.8644 2.23062 17.1084 2.4747Z" fill="#A0AEC0"/>
</svg>
