<svg width="20" height="20" viewBox="0 0 20 20" fill="none" xmlns="http://www.w3.org/2000/svg">
<path fill-rule="evenodd" clip-rule="evenodd" d="M1.04175 7.08343C1.04175 6.73826 1.32157 6.45843 1.66675 6.45843H12.0834C12.4286 6.45843 12.7084 6.73826 12.7084 7.08343C12.7084 7.42861 12.4286 7.70843 12.0834 7.70843H1.66675C1.32157 7.70843 1.04175 7.42861 1.04175 7.08343Z" fill="#A0AEC0"/>
<path fill-rule="evenodd" clip-rule="evenodd" d="M4.37508 13.7501C4.37508 13.4049 4.6549 13.1251 5.00008 13.1251H6.66675C7.01193 13.1251 7.29175 13.4049 7.29175 13.7501C7.29175 14.0953 7.01193 14.3751 6.66675 14.3751H5.00008C4.6549 14.3751 4.37508 14.0953 4.37508 13.7501Z" fill="#A0AEC0"/>
<path fill-rule="evenodd" clip-rule="evenodd" d="M8.12508 13.7501C8.12508 13.4049 8.4049 13.1251 8.75008 13.1251H12.0834C12.4286 13.1251 12.7084 13.4049 12.7084 13.7501C12.7084 14.0953 12.4286 14.3751 12.0834 14.3751H8.75008C8.4049 14.3751 8.12508 14.0953 8.12508 13.7501Z" fill="#A0AEC0"/>
<path fill-rule="evenodd" clip-rule="evenodd" d="M2.84681 4.09349C2.49259 4.44373 2.29175 5.10941 2.29175 6.5751V13.4251C2.29175 14.8908 2.49259 15.5565 2.84681 15.9067C3.20349 16.2594 3.88259 16.4584 5.36675 16.4584H14.6334C16.1176 16.4584 16.7967 16.2594 17.1534 15.9067C17.5076 15.5565 17.7084 14.8908 17.7084 13.4251V11.6918C17.7084 11.3466 17.9882 11.0668 18.3334 11.0668C18.6786 11.0668 18.9584 11.3466 18.9584 11.6918V13.4251C18.9584 14.8844 18.7884 16.0479 18.0322 16.7956C17.2785 17.5408 16.1076 17.7084 14.6334 17.7084H5.36675C3.89258 17.7084 2.72168 17.5408 1.96794 16.7956C1.21174 16.0479 1.04175 14.8844 1.04175 13.4251V6.5751C1.04175 5.11579 1.21174 3.95231 1.96794 3.20462C2.72168 2.45937 3.89258 2.29177 5.36675 2.29177H12.0834C12.4286 2.29177 12.7084 2.57159 12.7084 2.91677C12.7084 3.26194 12.4286 3.54177 12.0834 3.54177H5.36675C3.88259 3.54177 3.20349 3.74083 2.84681 4.09349Z" fill="#A0AEC0"/>
<path fill-rule="evenodd" clip-rule="evenodd" d="M16.4276 2.33934C16.6611 2.2426 16.9299 2.29608 17.1087 2.47482L18.7754 4.14149C19.0194 4.38557 19.0194 4.7813 18.7754 5.02537C18.5313 5.26945 18.1356 5.26945 17.8915 5.02537L17.2917 4.42565V7.91677C17.2917 8.26194 17.0119 8.54177 16.6667 8.54177C16.3216 8.54177 16.0417 8.26194 16.0417 7.91677V2.91677C16.0417 2.66398 16.194 2.43608 16.4276 2.33934Z" fill="#A0AEC0"/>
<path fill-rule="evenodd" clip-rule="evenodd" d="M17.1087 2.47482C17.3528 2.7189 17.3528 3.11463 17.1087 3.35871L15.442 5.02537C15.1979 5.26945 14.8022 5.26945 14.5581 5.02537C14.3141 4.7813 14.3141 4.38557 14.5581 4.14149L16.2248 2.47482C16.4689 2.23075 16.8646 2.23075 17.1087 2.47482Z" fill="#A0AEC0"/>
</svg>
