<svg width="20" height="20" viewBox="0 0 20 20" fill="none" xmlns="http://www.w3.org/2000/svg">
<path fill-rule="evenodd" clip-rule="evenodd" d="M1.04169 7.08319C1.04169 6.73801 1.32151 6.45819 1.66669 6.45819H12.0834C12.4285 6.45819 12.7084 6.73801 12.7084 7.08319C12.7084 7.42837 12.4285 7.70819 12.0834 7.70819H1.66669C1.32151 7.70819 1.04169 7.42837 1.04169 7.08319Z" fill="#A0AEC0"/>
<path fill-rule="evenodd" clip-rule="evenodd" d="M4.37502 13.7499C4.37502 13.4047 4.65484 13.1249 5.00002 13.1249H6.66669C7.01187 13.1249 7.29169 13.4047 7.29169 13.7499C7.29169 14.095 7.01187 14.3749 6.66669 14.3749H5.00002C4.65484 14.3749 4.37502 14.095 4.37502 13.7499Z" fill="#A0AEC0"/>
<path fill-rule="evenodd" clip-rule="evenodd" d="M8.12502 13.7499C8.12502 13.4047 8.40484 13.1249 8.75002 13.1249H12.0834C12.4285 13.1249 12.7084 13.4047 12.7084 13.7499C12.7084 14.095 12.4285 14.3749 12.0834 14.3749H8.75002C8.40484 14.3749 8.12502 14.095 8.12502 13.7499Z" fill="#A0AEC0"/>
<path fill-rule="evenodd" clip-rule="evenodd" d="M2.84675 4.09325C2.49253 4.44348 2.29169 5.10917 2.29169 6.57486V13.4249C2.29169 14.8905 2.49253 15.5562 2.84675 15.9065C3.20343 16.2591 3.88252 16.4582 5.36669 16.4582H14.6334C16.1175 16.4582 16.7966 16.2591 17.1533 15.9065C17.5075 15.5562 17.7084 14.8905 17.7084 13.4249V11.6915C17.7084 11.3463 17.9882 11.0665 18.3334 11.0665C18.6785 11.0665 18.9584 11.3463 18.9584 11.6915V13.4249C18.9584 14.8842 18.7884 16.0476 18.0322 16.7953C17.2784 17.5406 16.1075 17.7082 14.6334 17.7082H5.36669C3.89252 17.7082 2.72162 17.5406 1.96788 16.7953C1.21168 16.0476 1.04169 14.8842 1.04169 13.4249V6.57486C1.04169 5.11554 1.21168 3.95206 1.96788 3.20438C2.72162 2.45913 3.89252 2.29152 5.36669 2.29152H12.0834C12.4285 2.29152 12.7084 2.57134 12.7084 2.91652C12.7084 3.2617 12.4285 3.54152 12.0834 3.54152H5.36669C3.88252 3.54152 3.20343 3.74058 2.84675 4.09325Z" fill="#A0AEC0"/>
<path fill-rule="evenodd" clip-rule="evenodd" d="M16.4275 2.3391C16.6611 2.24236 16.9299 2.29583 17.1086 2.47458L18.7753 4.14125C19.0194 4.38532 19.0194 4.78105 18.7753 5.02513C18.5312 5.26921 18.1355 5.26921 17.8914 5.02513L17.2917 4.42541V7.91652C17.2917 8.2617 17.0119 8.54152 16.6667 8.54152C16.3215 8.54152 16.0417 8.2617 16.0417 7.91652V2.91652C16.0417 2.66373 16.194 2.43584 16.4275 2.3391Z" fill="#A0AEC0"/>
<path fill-rule="evenodd" clip-rule="evenodd" d="M17.1086 2.47458C17.3527 2.71866 17.3527 3.11439 17.1086 3.35846L15.442 5.02513C15.1979 5.26921 14.8022 5.26921 14.5581 5.02513C14.314 4.78105 14.314 4.38532 14.5581 4.14125L16.2247 2.47458C16.4688 2.2305 16.8646 2.2305 17.1086 2.47458Z" fill="#A0AEC0"/>
</svg>
