<svg width="20" height="20" viewBox="0 0 20 20" fill="none" xmlns="http://www.w3.org/2000/svg">
<path d="M9.99999 1.66663C5.40832 1.66663 1.66666 5.40829 1.66666 9.99996C1.66666 14.5916 5.40832 18.3333 9.99999 18.3333C14.5917 18.3333 18.3333 14.5916 18.3333 9.99996C18.3333 5.40829 14.5917 1.66663 9.99999 1.66663ZM12.8 11.9166C13.0417 12.1583 13.0417 12.5583 12.8 12.8C12.675 12.925 12.5167 12.9833 12.3583 12.9833C12.2 12.9833 12.0417 12.925 11.9167 12.8L9.99999 10.8833L8.08332 12.8C7.95832 12.925 7.79999 12.9833 7.64166 12.9833C7.48332 12.9833 7.32499 12.925 7.19999 12.8C6.95832 12.5583 6.95832 12.1583 7.19999 11.9166L9.11666 9.99996L7.19999 8.08329C6.95832 7.84163 6.95832 7.44163 7.19999 7.19996C7.44166 6.95829 7.84166 6.95829 8.08332 7.19996L9.99999 9.11663L11.9167 7.19996C12.1583 6.95829 12.5583 6.95829 12.8 7.19996C13.0417 7.44163 13.0417 7.84163 12.8 8.08329L10.8833 9.99996L12.8 11.9166Z" fill="#292D32"/>
</svg>
