<svg width="16" height="17" viewBox="0 0 16 17" fill="none" xmlns="http://www.w3.org/2000/svg">
<path fill-rule="evenodd" clip-rule="evenodd" d="M9.33334 2C9.60948 2 9.83334 2.22386 9.83334 2.5V5.16667C9.83334 5.21087 9.8509 5.25326 9.88215 5.28452C9.91341 5.31577 9.9558 5.33333 10 5.33333H12.6667C12.9428 5.33333 13.1667 5.55719 13.1667 5.83333C13.1667 6.10948 12.9428 6.33333 12.6667 6.33333H10C9.69058 6.33333 9.39384 6.21042 9.17505 5.99162C8.95625 5.77283 8.83334 5.47609 8.83334 5.16667V2.5C8.83334 2.22386 9.05719 2 9.33334 2Z" fill="#A0AEC0"/>
<path fill-rule="evenodd" clip-rule="evenodd" d="M4.66667 3C4.44566 3 4.23369 3.0878 4.07741 3.24408C3.92113 3.40036 3.83334 3.61232 3.83334 3.83333V13.1667C3.83334 13.3877 3.92113 13.5996 4.07741 13.7559C4.23369 13.9122 4.44566 14 4.66667 14H11.3333C11.5543 14 11.7663 13.9122 11.9226 13.7559C12.0789 13.5996 12.1667 13.3877 12.1667 13.1667V6.04044L9.12623 3H4.66667ZM3.37031 2.53697C3.71412 2.19315 4.18044 2 4.66667 2H9.33334C9.46594 2 9.59312 2.05268 9.68689 2.14645L13.0202 5.47978C13.114 5.57355 13.1667 5.70073 13.1667 5.83333V13.1667C13.1667 13.6529 12.9735 14.1192 12.6297 14.463C12.2859 14.8068 11.8196 15 11.3333 15H4.66667C4.18044 15 3.71412 14.8068 3.37031 14.463C3.02649 14.1192 2.83334 13.6529 2.83334 13.1667V3.83333C2.83334 3.3471 3.02649 2.88079 3.37031 2.53697Z" fill="#A0AEC0"/>
<path fill-rule="evenodd" clip-rule="evenodd" d="M5.5 6.5C5.5 6.22386 5.72386 6 6 6H6.66667C6.94281 6 7.16667 6.22386 7.16667 6.5C7.16667 6.77614 6.94281 7 6.66667 7H6C5.72386 7 5.5 6.77614 5.5 6.5Z" fill="#A0AEC0"/>
<path fill-rule="evenodd" clip-rule="evenodd" d="M5.5 9.16667C5.5 8.89052 5.72386 8.66667 6 8.66667H10C10.2761 8.66667 10.5 8.89052 10.5 9.16667C10.5 9.44281 10.2761 9.66667 10 9.66667H6C5.72386 9.66667 5.5 9.44281 5.5 9.16667Z" fill="#A0AEC0"/>
<path fill-rule="evenodd" clip-rule="evenodd" d="M5.5 11.8333C5.5 11.5572 5.72386 11.3333 6 11.3333H10C10.2761 11.3333 10.5 11.5572 10.5 11.8333C10.5 12.1095 10.2761 12.3333 10 12.3333H6C5.72386 12.3333 5.5 12.1095 5.5 11.8333Z" fill="#A0AEC0"/>
</svg>
