<svg width="16" height="17" viewBox="0 0 16 17" fill="none" xmlns="http://www.w3.org/2000/svg">
<path fill-rule="evenodd" clip-rule="evenodd" d="M9.33331 2C9.60946 2 9.83331 2.22386 9.83331 2.5V5.16667C9.83331 5.21087 9.85087 5.25326 9.88213 5.28452C9.91338 5.31577 9.95578 5.33333 9.99998 5.33333H12.6666C12.9428 5.33333 13.1666 5.55719 13.1666 5.83333C13.1666 6.10948 12.9428 6.33333 12.6666 6.33333H9.99998C9.69056 6.33333 9.39381 6.21042 9.17502 5.99162C8.95623 5.77283 8.83331 5.47609 8.83331 5.16667V2.5C8.83331 2.22386 9.05717 2 9.33331 2Z" fill="white"/>
<path fill-rule="evenodd" clip-rule="evenodd" d="M4.66665 3C4.44563 3 4.23367 3.0878 4.07739 3.24408C3.92111 3.40036 3.83331 3.61232 3.83331 3.83333V13.1667C3.83331 13.3877 3.92111 13.5996 4.07739 13.7559C4.23367 13.9122 4.44563 14 4.66665 14H11.3333C11.5543 14 11.7663 13.9122 11.9226 13.7559C12.0788 13.5996 12.1666 13.3877 12.1666 13.1667V6.04044L9.12621 3H4.66665ZM3.37028 2.53697C3.7141 2.19315 4.18042 2 4.66665 2H9.33331C9.46592 2 9.5931 2.05268 9.68687 2.14645L13.0202 5.47978C13.114 5.57355 13.1666 5.70073 13.1666 5.83333V13.1667C13.1666 13.6529 12.9735 14.1192 12.6297 14.463C12.2859 14.8068 11.8195 15 11.3333 15H4.66665C4.18042 15 3.7141 14.8068 3.37028 14.463C3.02647 14.1192 2.83331 13.6529 2.83331 13.1667V3.83333C2.83331 3.3471 3.02647 2.88079 3.37028 2.53697Z" fill="white"/>
<path fill-rule="evenodd" clip-rule="evenodd" d="M7.99998 7.33333C8.27612 7.33333 8.49998 7.55719 8.49998 7.83333V11.8333C8.49998 12.1095 8.27612 12.3333 7.99998 12.3333C7.72384 12.3333 7.49998 12.1095 7.49998 11.8333V7.83333C7.49998 7.55719 7.72384 7.33333 7.99998 7.33333Z" fill="white"/>
<path fill-rule="evenodd" clip-rule="evenodd" d="M5.64643 9.47978C5.84169 9.28452 6.15827 9.28452 6.35353 9.47978L7.99998 11.1262L9.64643 9.47978C9.84169 9.28452 10.1583 9.28452 10.3535 9.47978C10.5488 9.67504 10.5488 9.99162 10.3535 10.1869L8.35353 12.1869C8.15827 12.3821 7.84169 12.3821 7.64643 12.1869L5.64643 10.1869C5.45116 9.99162 5.45116 9.67504 5.64643 9.47978Z" fill="white"/>
</svg>
