<svg width="24" height="25" viewBox="0 0 24 25" fill="none" xmlns="http://www.w3.org/2000/svg">
<path fill-rule="evenodd" clip-rule="evenodd" d="M14 2.75C14.4142 2.75 14.75 3.08579 14.75 3.5V7.5C14.75 7.5663 14.7763 7.62989 14.8232 7.67678C14.8701 7.72366 14.9337 7.75 15 7.75H19C19.4142 7.75 19.75 8.08579 19.75 8.5C19.75 8.91421 19.4142 9.25 19 9.25H15C14.5359 9.25 14.0908 9.06563 13.7626 8.73744C13.4344 8.40925 13.25 7.96413 13.25 7.5V3.5C13.25 3.08579 13.5858 2.75 14 2.75Z" fill="#A0AEC0"/>
<path fill-rule="evenodd" clip-rule="evenodd" d="M7 4.25C6.66848 4.25 6.35054 4.3817 6.11612 4.61612C5.8817 4.85054 5.75 5.16848 5.75 5.5V19.5C5.75 19.8315 5.8817 20.1495 6.11612 20.3839C6.35054 20.6183 6.66848 20.75 7 20.75H17C17.3315 20.75 17.6495 20.6183 17.8839 20.3839C18.1183 20.1495 18.25 19.8315 18.25 19.5V8.81066L13.6893 4.25H7ZM5.05546 3.55546C5.57118 3.03973 6.27065 2.75 7 2.75H14C14.1989 2.75 14.3897 2.82902 14.5303 2.96967L19.5303 7.96967C19.671 8.11032 19.75 8.30109 19.75 8.5V19.5C19.75 20.2293 19.4603 20.9288 18.9445 21.4445C18.4288 21.9603 17.7293 22.25 17 22.25H7C6.27065 22.25 5.57118 21.9603 5.05546 21.4445C4.53973 20.9288 4.25 20.2293 4.25 19.5V5.5C4.25 4.77065 4.53973 4.07118 5.05546 3.55546Z" fill="#A0AEC0"/>
<path fill-rule="evenodd" clip-rule="evenodd" d="M12 18.25C11.5858 18.25 11.25 17.9142 11.25 17.5L11.25 11.5C11.25 11.0858 11.5858 10.75 12 10.75C12.4142 10.75 12.75 11.0858 12.75 11.5L12.75 17.5C12.75 17.9142 12.4142 18.25 12 18.25Z" fill="#A0AEC0"/>
<path fill-rule="evenodd" clip-rule="evenodd" d="M15.5303 15.0303C15.2374 15.3232 14.7626 15.3232 14.4697 15.0303L12 12.5607L9.53033 15.0303C9.23744 15.3232 8.76256 15.3232 8.46967 15.0303C8.17678 14.7374 8.17678 14.2626 8.46967 13.9697L11.4697 10.9697C11.7626 10.6768 12.2374 10.6768 12.5303 10.9697L15.5303 13.9697C15.8232 14.2626 15.8232 14.7374 15.5303 15.0303Z" fill="#A0AEC0"/>
</svg>
