<svg width="16" height="17" viewBox="0 0 16 17" fill="none" xmlns="http://www.w3.org/2000/svg">
<path fill-rule="evenodd" clip-rule="evenodd" d="M9.33337 2C9.60952 2 9.83337 2.22386 9.83337 2.5V5.16667C9.83337 5.21087 9.85093 5.25326 9.88219 5.28452C9.91345 5.31577 9.95584 5.33333 10 5.33333H12.6667C12.9429 5.33333 13.1667 5.55719 13.1667 5.83333C13.1667 6.10948 12.9429 6.33333 12.6667 6.33333H10C9.69062 6.33333 9.39388 6.21042 9.17508 5.99162C8.95629 5.77283 8.83337 5.47609 8.83337 5.16667V2.5C8.83337 2.22386 9.05723 2 9.33337 2Z" fill="#A0AEC0"/>
<path fill-rule="evenodd" clip-rule="evenodd" d="M4.66671 3C4.44569 3 4.23373 3.0878 4.07745 3.24408C3.92117 3.40036 3.83337 3.61232 3.83337 3.83333V13.1667C3.83337 13.3877 3.92117 13.5996 4.07745 13.7559C4.23373 13.9122 4.44569 14 4.66671 14H11.3334C11.5544 14 11.7663 13.9122 11.9226 13.7559C12.0789 13.5996 12.1667 13.3877 12.1667 13.1667V6.04044L9.12627 3H4.66671ZM3.37034 2.53697C3.71416 2.19315 4.18048 2 4.66671 2H9.33337C9.46598 2 9.59316 2.05268 9.68693 2.14645L13.0203 5.47978C13.114 5.57355 13.1667 5.70073 13.1667 5.83333V13.1667C13.1667 13.6529 12.9736 14.1192 12.6297 14.463C12.2859 14.8068 11.8196 15 11.3334 15H4.66671C4.18048 15 3.71416 14.8068 3.37034 14.463C3.02653 14.1192 2.83337 13.6529 2.83337 13.1667V3.83333C2.83337 3.3471 3.02653 2.88079 3.37034 2.53697Z" fill="#A0AEC0"/>
<path fill-rule="evenodd" clip-rule="evenodd" d="M5.50004 6.5C5.50004 6.22386 5.7239 6 6.00004 6H6.66671C6.94285 6 7.16671 6.22386 7.16671 6.5C7.16671 6.77614 6.94285 7 6.66671 7H6.00004C5.7239 7 5.50004 6.77614 5.50004 6.5Z" fill="#A0AEC0"/>
<path fill-rule="evenodd" clip-rule="evenodd" d="M5.50004 9.16667C5.50004 8.89052 5.7239 8.66667 6.00004 8.66667H10C10.2762 8.66667 10.5 8.89052 10.5 9.16667C10.5 9.44281 10.2762 9.66667 10 9.66667H6.00004C5.7239 9.66667 5.50004 9.44281 5.50004 9.16667Z" fill="#A0AEC0"/>
<path fill-rule="evenodd" clip-rule="evenodd" d="M5.50004 11.8333C5.50004 11.5572 5.7239 11.3333 6.00004 11.3333H10C10.2762 11.3333 10.5 11.5572 10.5 11.8333C10.5 12.1095 10.2762 12.3333 10 12.3333H6.00004C5.7239 12.3333 5.50004 12.1095 5.50004 11.8333Z" fill="#A0AEC0"/>
</svg>
