<svg width="16" height="17" viewBox="0 0 16 17" fill="none" xmlns="http://www.w3.org/2000/svg">
<path fill-rule="evenodd" clip-rule="evenodd" d="M9.33325 2C9.60939 2 9.83325 2.22386 9.83325 2.5V5.16667C9.83325 5.21087 9.85081 5.25326 9.88207 5.28452C9.91332 5.31577 9.95572 5.33333 9.99992 5.33333H12.6666C12.9427 5.33333 13.1666 5.55719 13.1666 5.83333C13.1666 6.10948 12.9427 6.33333 12.6666 6.33333H9.99992C9.6905 6.33333 9.39375 6.21042 9.17496 5.99162C8.95617 5.77283 8.83325 5.47609 8.83325 5.16667V2.5C8.83325 2.22386 9.05711 2 9.33325 2Z" fill="#A0AEC0"/>
<path fill-rule="evenodd" clip-rule="evenodd" d="M4.66659 3C4.44557 3 4.23361 3.0878 4.07733 3.24408C3.92105 3.40036 3.83325 3.61232 3.83325 3.83333V13.1667C3.83325 13.3877 3.92105 13.5996 4.07733 13.7559C4.23361 13.9122 4.44557 14 4.66659 14H11.3333C11.5543 14 11.7662 13.9122 11.9225 13.7559C12.0788 13.5996 12.1666 13.3877 12.1666 13.1667V6.04044L9.12615 3H4.66659ZM3.37022 2.53697C3.71404 2.19315 4.18036 2 4.66659 2H9.33325C9.46586 2 9.59304 2.05268 9.68681 2.14645L13.0201 5.47978C13.1139 5.57355 13.1666 5.70073 13.1666 5.83333V13.1667C13.1666 13.6529 12.9734 14.1192 12.6296 14.463C12.2858 14.8068 11.8195 15 11.3333 15H4.66659C4.18035 15 3.71404 14.8068 3.37022 14.463C3.02641 14.1192 2.83325 13.6529 2.83325 13.1667V3.83333C2.83325 3.3471 3.02641 2.88079 3.37022 2.53697Z" fill="#A0AEC0"/>
<path fill-rule="evenodd" clip-rule="evenodd" d="M5.49992 6.5C5.49992 6.22386 5.72378 6 5.99992 6H6.66659C6.94273 6 7.16659 6.22386 7.16659 6.5C7.16659 6.77614 6.94273 7 6.66659 7H5.99992C5.72378 7 5.49992 6.77614 5.49992 6.5Z" fill="#A0AEC0"/>
<path fill-rule="evenodd" clip-rule="evenodd" d="M5.49992 9.16667C5.49992 8.89052 5.72378 8.66667 5.99992 8.66667H9.99992C10.2761 8.66667 10.4999 8.89052 10.4999 9.16667C10.4999 9.44281 10.2761 9.66667 9.99992 9.66667H5.99992C5.72378 9.66667 5.49992 9.44281 5.49992 9.16667Z" fill="#A0AEC0"/>
<path fill-rule="evenodd" clip-rule="evenodd" d="M5.49992 11.8333C5.49992 11.5572 5.72378 11.3333 5.99992 11.3333H9.99992C10.2761 11.3333 10.4999 11.5572 10.4999 11.8333C10.4999 12.1095 10.2761 12.3333 9.99992 12.3333H5.99992C5.72378 12.3333 5.49992 12.1095 5.49992 11.8333Z" fill="#A0AEC0"/>
</svg>
