<svg width="263" height="29" viewBox="0 0 263 29" fill="none" xmlns="http://www.w3.org/2000/svg">
<path d="M36.0938 7.28223H74.3675V12.7499H36.0938V7.28223Z" fill="#C4C4C4"/>
<path d="M153.858 7.28223H192.132V12.7499H153.858V7.28223Z" fill="#0CAF60"/>
<path d="M75.207 7.28223H113.481V12.7499H75.207V7.28223Z" fill="#C4C4C4"/>
<path d="M192.973 7.28223H231.246V12.7499H192.973V7.28223Z" fill="#C4C4C4"/>
<path d="M114.742 7.28223H153.016V12.7499H114.742V7.28223Z" fill="#0CAF60"/>
<g filter="url(#filter0_d_1_19731)">
<path d="M199.491 10.2265C199.491 14.1753 196.29 17.3765 192.341 17.3765C188.393 17.3765 185.191 14.1753 185.191 10.2265C185.191 6.2776 188.393 3.07642 192.341 3.07642C196.29 3.07642 199.491 6.2776 199.491 10.2265Z" fill="white"/>
</g>
<path d="M36.3035 28.8547C35.9502 28.8547 35.6348 28.7752 35.3572 28.6163C35.0821 28.4547 34.8638 28.2365 34.7023 27.9614C34.5434 27.6838 34.4639 27.3684 34.4639 27.0151V25.0164C34.4639 24.6631 34.5434 24.3477 34.7023 24.0701C34.8638 23.7925 35.0821 23.5742 35.3572 23.4152C35.6348 23.2562 35.9502 23.1768 36.3035 23.1768C36.6568 23.1768 36.9723 23.2562 37.2499 23.4152C37.5274 23.5742 37.7457 23.7925 37.9047 24.0701C38.0637 24.3477 38.1432 24.6631 38.1432 25.0164V27.0151C38.1432 27.3684 38.0637 27.6838 37.9047 27.9614C37.7457 28.2365 37.5274 28.4547 37.2499 28.6163C36.9723 28.7752 36.6568 28.8547 36.3035 28.8547ZM36.3035 28.2074C36.518 28.2074 36.7123 28.1557 36.8865 28.0522C37.0606 27.9488 37.1994 27.81 37.3029 27.6359C37.4063 27.4592 37.4581 27.2649 37.4581 27.0529V24.9748C37.4581 24.7603 37.4063 24.566 37.3029 24.3918C37.1994 24.2177 37.0606 24.0789 36.8865 23.9755C36.7123 23.872 36.518 23.8203 36.3035 23.8203C36.0916 23.8203 35.8972 23.872 35.7206 23.9755C35.5465 24.0789 35.4077 24.2177 35.3042 24.3918C35.2007 24.566 35.149 24.7603 35.149 24.9748V27.0529C35.149 27.2649 35.2007 27.4592 35.3042 27.6359C35.4077 27.81 35.5465 27.9488 35.7206 28.0522C35.8972 28.1557 36.0916 28.2074 36.3035 28.2074Z" fill="#111827"/>
<path d="M71.584 28.2767L71.5878 27.671L74.0066 25.4945C74.2085 25.3128 74.3435 25.1412 74.4116 24.9797C74.4823 24.8157 74.5176 24.6478 74.5176 24.4762C74.5176 24.2668 74.4697 24.0775 74.3738 23.9084C74.2779 23.7394 74.1466 23.6056 73.9801 23.5072C73.8161 23.4088 73.6293 23.3596 73.4199 23.3596C73.2028 23.3596 73.0098 23.4113 72.8407 23.5148C72.6716 23.6157 72.5379 23.7507 72.4395 23.9198C72.3436 24.0889 72.2969 24.2731 72.2994 24.4724H71.6105C71.6105 24.1292 71.69 23.8264 71.849 23.564C72.0079 23.299 72.2237 23.0921 72.4962 22.9432C72.7713 22.7918 73.083 22.7161 73.4312 22.7161C73.7694 22.7161 74.0722 22.7943 74.3397 22.9508C74.6072 23.1047 74.8179 23.3154 74.9718 23.5829C75.1283 23.8479 75.2065 24.1482 75.2065 24.4838C75.2065 24.721 75.1762 24.9267 75.1157 25.1008C75.0576 25.2749 74.9668 25.4364 74.8431 25.5853C74.7195 25.7317 74.5643 25.8882 74.3775 26.0547L72.3675 27.8603L72.2805 27.6332H75.2065V28.2767H71.584Z" fill="#111827"/>
<path d="M77.9518 28.394C77.5985 28.394 77.2831 28.3145 77.0055 28.1556C76.7304 27.9941 76.5121 27.7758 76.3506 27.5007C76.1917 27.2231 76.1122 26.9077 76.1122 26.5544V24.5557C76.1122 24.2024 76.1917 23.887 76.3506 23.6094C76.5121 23.3318 76.7304 23.1135 77.0055 22.9545C77.2831 22.7956 77.5985 22.7161 77.9518 22.7161C78.3051 22.7161 78.6206 22.7956 78.8982 22.9545C79.1757 23.1135 79.394 23.3318 79.553 23.6094C79.712 23.887 79.7915 24.2024 79.7915 24.5557V26.5544C79.7915 26.9077 79.712 27.2231 79.553 27.5007C79.394 27.7758 79.1757 27.9941 78.8982 28.1556C78.6206 28.3145 78.3051 28.394 77.9518 28.394ZM77.9518 27.7467C78.1663 27.7467 78.3606 27.695 78.5348 27.5915C78.7089 27.4881 78.8477 27.3493 78.9511 27.1752C79.0546 26.9985 79.1063 26.8042 79.1063 26.5922V24.5141C79.1063 24.2996 79.0546 24.1053 78.9511 23.9311C78.8477 23.757 78.7089 23.6182 78.5348 23.5148C78.3606 23.4113 78.1663 23.3596 77.9518 23.3596C77.7398 23.3596 77.5455 23.4113 77.3689 23.5148C77.1948 23.6182 77.056 23.757 76.9525 23.9311C76.849 24.1053 76.7973 24.2996 76.7973 24.5141V26.5922C76.7973 26.8042 76.849 26.9985 76.9525 27.1752C77.056 27.3493 77.1948 27.4881 77.3689 27.5915C77.5455 27.695 77.7398 27.7467 77.9518 27.7467Z" fill="#111827"/>
<path d="M111.413 28.2805V27.2774H108.907V26.6376L110.705 22.8296H111.47L109.672 26.6376H111.413V25.1046H112.094V26.6376H112.662V27.2774H112.094V28.2805H111.413Z" fill="#111827"/>
<path d="M115.408 28.394C115.055 28.394 114.739 28.3145 114.462 28.1556C114.187 27.9941 113.968 27.7758 113.807 27.5007C113.648 27.2231 113.568 26.9077 113.568 26.5544V24.5557C113.568 24.2024 113.648 23.887 113.807 23.6094C113.968 23.3318 114.187 23.1135 114.462 22.9545C114.739 22.7956 115.055 22.7161 115.408 22.7161C115.761 22.7161 116.077 22.7956 116.354 22.9545C116.632 23.1135 116.85 23.3318 117.009 23.6094C117.168 23.887 117.248 24.2024 117.248 24.5557V26.5544C117.248 26.9077 117.168 27.2231 117.009 27.5007C116.85 27.7758 116.632 27.9941 116.354 28.1556C116.077 28.3145 115.761 28.394 115.408 28.394ZM115.408 27.7467C115.623 27.7467 115.817 27.695 115.991 27.5915C116.165 27.4881 116.304 27.3493 116.407 27.1752C116.511 26.9985 116.563 26.8042 116.563 26.5922V24.5141C116.563 24.2996 116.511 24.1053 116.407 23.9311C116.304 23.757 116.165 23.6182 115.991 23.5148C115.817 23.4113 115.623 23.3596 115.408 23.3596C115.196 23.3596 115.002 23.4113 114.825 23.5148C114.651 23.6182 114.512 23.757 114.409 23.9311C114.305 24.1053 114.254 24.2996 114.254 24.5141V26.5922C114.254 26.8042 114.305 26.9985 114.409 27.1752C114.512 27.3493 114.651 27.4881 114.825 27.5915C115.002 27.695 115.196 27.7467 115.408 27.7467Z" fill="#111827"/>
<path d="M149.209 28.394C148.863 28.394 148.549 28.3108 148.267 28.1442C147.987 27.9776 147.763 27.7505 147.597 27.4628C147.433 27.1726 147.351 26.8458 147.351 26.4825V24.6693C147.351 24.2882 147.433 23.9513 147.597 23.6586C147.763 23.3634 147.99 23.1337 148.278 22.9697C148.568 22.8031 148.899 22.7198 149.27 22.7198C149.57 22.7198 149.849 22.7817 150.106 22.9053C150.366 23.0265 150.585 23.2018 150.761 23.4315L150.258 23.8782C150.149 23.7192 150.008 23.593 149.834 23.4996C149.66 23.4063 149.472 23.3596 149.27 23.3596C149.03 23.3596 148.817 23.4176 148.63 23.5337C148.446 23.6473 148.301 23.7987 148.195 23.9879C148.089 24.1747 148.036 24.3766 148.036 24.5936V25.6875L147.888 25.521C148.047 25.2939 148.249 25.1122 148.494 24.9759C148.739 24.8396 149.004 24.7715 149.289 24.7715C149.627 24.7715 149.93 24.851 150.197 25.01C150.467 25.1689 150.679 25.3847 150.833 25.6573C150.99 25.9273 151.068 26.2314 151.068 26.5695C151.068 26.9077 150.983 27.2143 150.814 27.4893C150.645 27.7644 150.419 27.984 150.137 28.148C149.856 28.312 149.547 28.394 149.209 28.394ZM149.209 27.743C149.426 27.743 149.624 27.6912 149.803 27.5878C149.983 27.4818 150.124 27.3405 150.227 27.1638C150.333 26.9846 150.386 26.7865 150.386 26.5695C150.386 26.3525 150.333 26.1544 150.227 25.9752C150.124 25.796 149.983 25.6547 149.803 25.5513C149.627 25.4453 149.43 25.3923 149.213 25.3923C148.996 25.3923 148.798 25.4453 148.619 25.5513C148.442 25.6547 148.301 25.796 148.195 25.9752C148.089 26.1544 148.036 26.3525 148.036 26.5695C148.036 26.784 148.087 26.9809 148.191 27.16C148.297 27.3367 148.438 27.478 148.615 27.584C148.794 27.69 148.992 27.743 149.209 27.743Z" fill="#111827"/>
<path d="M153.892 28.394C153.539 28.394 153.224 28.3145 152.946 28.1556C152.671 27.9941 152.453 27.7758 152.291 27.5007C152.132 27.2231 152.053 26.9077 152.053 26.5544V24.5557C152.053 24.2024 152.132 23.887 152.291 23.6094C152.453 23.3318 152.671 23.1135 152.946 22.9545C153.224 22.7956 153.539 22.7161 153.892 22.7161C154.246 22.7161 154.561 22.7956 154.839 22.9545C155.116 23.1135 155.335 23.3318 155.494 23.6094C155.652 23.887 155.732 24.2024 155.732 24.5557V26.5544C155.732 26.9077 155.652 27.2231 155.494 27.5007C155.335 27.7758 155.116 27.9941 154.839 28.1556C154.561 28.3145 154.246 28.394 153.892 28.394ZM153.892 27.7467C154.107 27.7467 154.301 27.695 154.475 27.5915C154.649 27.4881 154.788 27.3493 154.892 27.1752C154.995 26.9985 155.047 26.8042 155.047 26.5922V24.5141C155.047 24.2996 154.995 24.1053 154.892 23.9311C154.788 23.757 154.649 23.6182 154.475 23.5148C154.301 23.4113 154.107 23.3596 153.892 23.3596C153.68 23.3596 153.486 23.4113 153.309 23.5148C153.135 23.6182 152.996 23.757 152.893 23.9311C152.79 24.1053 152.738 24.2996 152.738 24.5141V26.5922C152.738 26.8042 152.79 26.9985 152.893 27.1752C152.996 27.3493 153.135 27.4881 153.309 27.5915C153.486 27.695 153.68 27.7467 153.892 27.7467Z" fill="#111827"/>
<path d="M188.614 28.394C188.266 28.394 187.958 28.3246 187.69 28.1858C187.423 28.0445 187.213 27.8489 187.062 27.5991C186.911 27.3493 186.835 27.0578 186.835 26.7247C186.835 26.3992 186.912 26.1052 187.066 25.8427C187.222 25.5803 187.457 25.3784 187.77 25.2371L187.759 25.4831C187.504 25.3595 187.308 25.1854 187.172 24.9608C187.036 24.7336 186.967 24.4825 186.967 24.2075C186.967 23.8996 187.038 23.6346 187.179 23.4126C187.321 23.1905 187.515 23.0189 187.762 22.8978C188.01 22.7766 188.294 22.7161 188.614 22.7161C188.935 22.7161 189.218 22.7766 189.466 22.8978C189.713 23.0189 189.907 23.1905 190.049 23.4126C190.19 23.6346 190.261 23.8996 190.261 24.2075C190.261 24.4825 190.196 24.7324 190.068 24.957C189.939 25.179 189.741 25.3544 189.473 25.4831L189.458 25.2409C189.771 25.3771 190.006 25.5778 190.162 25.8427C190.321 26.1052 190.401 26.3992 190.401 26.7247C190.401 27.0578 190.324 27.3493 190.17 27.5991C190.018 27.8489 189.808 28.0445 189.538 28.1858C189.27 28.3246 188.962 28.394 188.614 28.394ZM188.614 27.7505C188.932 27.7505 189.189 27.6635 189.386 27.4893C189.586 27.3127 189.685 27.0578 189.685 26.7247C189.685 26.3891 189.587 26.1342 189.39 25.9601C189.196 25.7834 188.937 25.6951 188.614 25.6951C188.294 25.6951 188.035 25.7834 187.838 25.9601C187.644 26.1342 187.547 26.3891 187.547 26.7247C187.547 27.0578 187.645 27.3127 187.842 27.4893C188.039 27.6635 188.296 27.7505 188.614 27.7505ZM188.614 25.0478C188.892 25.0478 189.116 24.9784 189.288 24.8396C189.459 24.6983 189.545 24.4876 189.545 24.2075C189.545 23.9274 189.459 23.7179 189.288 23.5791C189.116 23.4378 188.892 23.3671 188.614 23.3671C188.339 23.3671 188.114 23.4378 187.94 23.5791C187.769 23.7179 187.683 23.9274 187.683 24.2075C187.683 24.4876 187.769 24.6983 187.94 24.8396C188.114 24.9784 188.339 25.0478 188.614 25.0478Z" fill="#111827"/>
<path d="M193.223 28.394C192.87 28.394 192.554 28.3145 192.277 28.1556C192.002 27.9941 191.784 27.7758 191.622 27.5007C191.463 27.2231 191.384 26.9077 191.384 26.5544V24.5557C191.384 24.2024 191.463 23.887 191.622 23.6094C191.784 23.3318 192.002 23.1135 192.277 22.9545C192.554 22.7956 192.87 22.7161 193.223 22.7161C193.577 22.7161 193.892 22.7956 194.17 22.9545C194.447 23.1135 194.665 23.3318 194.824 23.6094C194.983 23.887 195.063 24.2024 195.063 24.5557V26.5544C195.063 26.9077 194.983 27.2231 194.824 27.5007C194.665 27.7758 194.447 27.9941 194.17 28.1556C193.892 28.3145 193.577 28.394 193.223 28.394ZM193.223 27.7467C193.438 27.7467 193.632 27.695 193.806 27.5915C193.98 27.4881 194.119 27.3493 194.223 27.1752C194.326 26.9985 194.378 26.8042 194.378 26.5922V24.5141C194.378 24.2996 194.326 24.1053 194.223 23.9311C194.119 23.757 193.98 23.6182 193.806 23.5148C193.632 23.4113 193.438 23.3596 193.223 23.3596C193.011 23.3596 192.817 23.4113 192.64 23.5148C192.466 23.6182 192.327 23.757 192.224 23.9311C192.12 24.1053 192.069 24.2996 192.069 24.5141V26.5922C192.069 26.8042 192.12 26.9985 192.224 27.1752C192.327 27.3493 192.466 27.4881 192.64 27.5915C192.817 27.695 193.011 27.7467 193.223 27.7467Z" fill="#111827"/>
<path d="M222.476 28.2805V23.5753L221.45 24.1961V23.4428L222.476 22.8296H223.161V28.2805H222.476Z" fill="#111827"/>
<path d="M226.441 28.394C226.088 28.394 225.772 28.3145 225.495 28.1556C225.22 27.9941 225.001 27.7758 224.84 27.5007C224.681 27.2231 224.601 26.9077 224.601 26.5544V24.5557C224.601 24.2024 224.681 23.887 224.84 23.6094C225.001 23.3318 225.22 23.1135 225.495 22.9545C225.772 22.7956 226.088 22.7161 226.441 22.7161C226.794 22.7161 227.11 22.7956 227.387 22.9545C227.665 23.1135 227.883 23.3318 228.042 23.6094C228.201 23.887 228.281 24.2024 228.281 24.5557V26.5544C228.281 26.9077 228.201 27.2231 228.042 27.5007C227.883 27.7758 227.665 27.9941 227.387 28.1556C227.11 28.3145 226.794 28.394 226.441 28.394ZM226.441 27.7467C226.656 27.7467 226.85 27.695 227.024 27.5915C227.198 27.4881 227.337 27.3493 227.44 27.1752C227.544 26.9985 227.596 26.8042 227.596 26.5922V24.5141C227.596 24.2996 227.544 24.1053 227.44 23.9311C227.337 23.757 227.198 23.6182 227.024 23.5148C226.85 23.4113 226.656 23.3596 226.441 23.3596C226.229 23.3596 226.035 23.4113 225.858 23.5148C225.684 23.6182 225.545 23.757 225.442 23.9311C225.338 24.1053 225.287 24.2996 225.287 24.5141V26.5922C225.287 26.8042 225.338 26.9985 225.442 27.1752C225.545 27.3493 225.684 27.4881 225.858 27.5915C226.035 27.695 226.229 27.7467 226.441 27.7467Z" fill="#111827"/>
<path d="M231.18 28.394C230.827 28.394 230.511 28.3145 230.234 28.1556C229.959 27.9941 229.74 27.7758 229.579 27.5007C229.42 27.2231 229.341 26.9077 229.341 26.5544V24.5557C229.341 24.2024 229.42 23.887 229.579 23.6094C229.74 23.3318 229.959 23.1135 230.234 22.9545C230.511 22.7956 230.827 22.7161 231.18 22.7161C231.533 22.7161 231.849 22.7956 232.126 22.9545C232.404 23.1135 232.622 23.3318 232.781 23.6094C232.94 23.887 233.02 24.2024 233.02 24.5557V26.5544C233.02 26.9077 232.94 27.2231 232.781 27.5007C232.622 27.7758 232.404 27.9941 232.126 28.1556C231.849 28.3145 231.533 28.394 231.18 28.394ZM231.18 27.7467C231.395 27.7467 231.589 27.695 231.763 27.5915C231.937 27.4881 232.076 27.3493 232.179 27.1752C232.283 26.9985 232.335 26.8042 232.335 26.5922V24.5141C232.335 24.2996 232.283 24.1053 232.179 23.9311C232.076 23.757 231.937 23.6182 231.763 23.5148C231.589 23.4113 231.395 23.3596 231.18 23.3596C230.968 23.3596 230.774 23.4113 230.597 23.5148C230.423 23.6182 230.284 23.757 230.181 23.9311C230.077 24.1053 230.026 24.2996 230.026 24.5141V26.5922C230.026 26.8042 230.077 26.9985 230.181 27.1752C230.284 27.3493 230.423 27.4881 230.597 27.5915C230.774 27.695 230.968 27.7467 231.18 27.7467Z" fill="#111827"/>
<g filter="url(#filter1_d_1_19731)">
<path d="M119.491 10.2265C119.491 14.1753 116.29 17.3765 112.341 17.3765C108.393 17.3765 105.191 14.1753 105.191 10.2265C105.191 6.2776 108.393 3.07642 112.341 3.07642C116.29 3.07642 119.491 6.2776 119.491 10.2265Z" fill="white"/>
</g>
<g filter="url(#filter2_d_1_19731)">
<path d="M20.3374 10.0901C20.3374 14.8777 16.4563 18.7588 11.6687 18.7588C6.88112 18.7588 3 14.8777 3 10.0901C3 5.30251 6.88112 1.42139 11.6687 1.42139C16.4563 1.42139 20.3374 5.30251 20.3374 10.0901Z" fill="white"/>
</g>
<path d="M13.5927 9.96741V11.0451H9.81445V9.96741H13.5927Z" fill="#63357E"/>
<g filter="url(#filter3_d_1_19731)">
<path d="M260.405 10.0901C260.405 14.8777 256.524 18.7588 251.736 18.7588C246.949 18.7588 243.067 14.8777 243.067 10.0901C243.067 5.30251 246.949 1.42139 251.736 1.42139C256.524 1.42139 260.405 5.30251 260.405 10.0901Z" fill="white"/>
</g>
<path d="M251.017 13.106V7.48022H252.136V13.106H251.017ZM248.766 10.8507V9.73138H254.391V10.8507H248.766Z" fill="#63357E"/>
<defs>
<filter id="filter0_d_1_19731" x="183.475" y="1.93241" width="17.7318" height="17.7321" filterUnits="userSpaceOnUse" color-interpolation-filters="sRGB">
<feFlood flood-opacity="0" result="BackgroundImageFix"/>
<feColorMatrix in="SourceAlpha" type="matrix" values="0 0 0 0 0 0 0 0 0 0 0 0 0 0 0 0 0 0 127 0" result="hardAlpha"/>
<feOffset dy="0.572003"/>
<feGaussianBlur stdDeviation="0.858004"/>
<feColorMatrix type="matrix" values="0 0 0 0 0 0 0 0 0 0 0 0 0 0 0 0 0 0 0.3 0"/>
<feBlend mode="normal" in2="BackgroundImageFix" result="effect1_dropShadow_1_19731"/>
<feBlend mode="normal" in="SourceGraphic" in2="effect1_dropShadow_1_19731" result="shape"/>
</filter>
<filter id="filter1_d_1_19731" x="103.475" y="1.93241" width="17.7318" height="17.7321" filterUnits="userSpaceOnUse" color-interpolation-filters="sRGB">
<feFlood flood-opacity="0" result="BackgroundImageFix"/>
<feColorMatrix in="SourceAlpha" type="matrix" values="0 0 0 0 0 0 0 0 0 0 0 0 0 0 0 0 0 0 127 0" result="hardAlpha"/>
<feOffset dy="0.572003"/>
<feGaussianBlur stdDeviation="0.858004"/>
<feColorMatrix type="matrix" values="0 0 0 0 0 0 0 0 0 0 0 0 0 0 0 0 0 0 0.3 0"/>
<feBlend mode="normal" in2="BackgroundImageFix" result="effect1_dropShadow_1_19731"/>
<feBlend mode="normal" in="SourceGraphic" in2="effect1_dropShadow_1_19731" result="shape"/>
</filter>
<filter id="filter2_d_1_19731" x="0.919507" y="0.0343914" width="21.4989" height="21.4984" filterUnits="userSpaceOnUse" color-interpolation-filters="sRGB">
<feFlood flood-opacity="0" result="BackgroundImageFix"/>
<feColorMatrix in="SourceAlpha" type="matrix" values="0 0 0 0 0 0 0 0 0 0 0 0 0 0 0 0 0 0 127 0" result="hardAlpha"/>
<feOffset dy="0.693498"/>
<feGaussianBlur stdDeviation="1.04025"/>
<feColorMatrix type="matrix" values="0 0 0 0 0 0 0 0 0 0 0 0 0 0 0 0 0 0 0.3 0"/>
<feBlend mode="normal" in2="BackgroundImageFix" result="effect1_dropShadow_1_19731"/>
<feBlend mode="normal" in="SourceGraphic" in2="effect1_dropShadow_1_19731" result="shape"/>
</filter>
<filter id="filter3_d_1_19731" x="240.987" y="0.0343914" width="21.4989" height="21.4984" filterUnits="userSpaceOnUse" color-interpolation-filters="sRGB">
<feFlood flood-opacity="0" result="BackgroundImageFix"/>
<feColorMatrix in="SourceAlpha" type="matrix" values="0 0 0 0 0 0 0 0 0 0 0 0 0 0 0 0 0 0 127 0" result="hardAlpha"/>
<feOffset dy="0.693498"/>
<feGaussianBlur stdDeviation="1.04025"/>
<feColorMatrix type="matrix" values="0 0 0 0 0 0 0 0 0 0 0 0 0 0 0 0 0 0 0.3 0"/>
<feBlend mode="normal" in2="BackgroundImageFix" result="effect1_dropShadow_1_19731"/>
<feBlend mode="normal" in="SourceGraphic" in2="effect1_dropShadow_1_19731" result="shape"/>
</filter>
</defs>
</svg>
