<svg width="20" height="20" viewBox="0 0 20 20" fill="none" xmlns="http://www.w3.org/2000/svg">
<path fill-rule="evenodd" clip-rule="evenodd" d="M9.99996 2.2915C5.74276 2.2915 2.29163 5.74264 2.29163 9.99984C2.29163 14.257 5.74276 17.7082 9.99996 17.7082C14.2572 17.7082 17.7083 14.257 17.7083 9.99984C17.7083 5.74264 14.2572 2.2915 9.99996 2.2915ZM1.04163 9.99984C1.04163 5.05229 5.05241 1.0415 9.99996 1.0415C14.9475 1.0415 18.9583 5.05229 18.9583 9.99984C18.9583 14.9474 14.9475 18.9582 9.99996 18.9582C5.05241 18.9582 1.04163 14.9474 1.04163 9.99984Z" fill="#A0AEC0"/>
<path fill-rule="evenodd" clip-rule="evenodd" d="M6.04163 2.49984C6.04163 2.15466 6.32145 1.87484 6.66663 1.87484H7.49996C7.70092 1.87484 7.88962 1.97147 8.00708 2.13452C8.12454 2.29758 8.15643 2.50717 8.09278 2.69778C6.51068 7.43597 6.51068 12.5637 8.09278 17.3019C8.15643 17.4925 8.12454 17.7021 8.00708 17.8652C7.88962 18.0282 7.70092 18.1248 7.49996 18.1248H6.66663C6.32145 18.1248 6.04163 17.845 6.04163 17.4998C6.04163 17.1607 6.31174 16.8847 6.64857 16.8751C5.32542 12.3883 5.32542 7.61141 6.64857 3.12458C6.31174 3.11503 6.04163 2.83898 6.04163 2.49984Z" fill="#A0AEC0"/>
<path fill-rule="evenodd" clip-rule="evenodd" d="M12.302 1.90701C12.6294 1.79769 12.9835 1.97448 13.0928 2.30189C14.7607 7.29704 14.7607 12.7026 13.0928 17.6978C12.9835 18.0252 12.6294 18.202 12.302 18.0927C11.9746 17.9833 11.7978 17.6293 11.9071 17.3019C13.4892 12.5637 13.4892 7.43597 11.9071 2.69778C11.7978 2.37038 11.9746 2.01633 12.302 1.90701Z" fill="#A0AEC0"/>
<path fill-rule="evenodd" clip-rule="evenodd" d="M2.13465 11.9927C2.2977 11.8753 2.50729 11.8434 2.69791 11.907C7.4361 13.4891 12.5638 13.4891 17.302 11.907C17.4926 11.8434 17.7022 11.8753 17.8653 11.9927C18.0283 12.1102 18.125 12.2989 18.125 12.4998V13.3332C18.125 13.6783 17.8451 13.9582 17.5 13.9582C17.1608 13.9582 16.8848 13.6881 16.8752 13.3512C12.3884 14.6744 7.61154 14.6744 3.1247 13.3512C3.11515 13.6881 2.8391 13.9582 2.49996 13.9582C2.15478 13.9582 1.87496 13.6783 1.87496 13.3332V12.4998C1.87496 12.2989 1.97159 12.1102 2.13465 11.9927Z" fill="#A0AEC0"/>
<path fill-rule="evenodd" clip-rule="evenodd" d="M17.302 8.09266C12.5638 6.51056 7.4361 6.51056 2.69791 8.09266C2.3705 8.20199 2.01646 8.02519 1.90713 7.69778C1.79781 7.37038 1.9746 7.01634 2.30201 6.90701C7.29716 5.23911 12.7028 5.23911 17.6979 6.90701C18.0253 7.01634 18.2021 7.37038 18.0928 7.69778C17.9835 8.02519 17.6294 8.20199 17.302 8.09266Z" fill="#A0AEC0"/>
</svg>
