<svg width="20" height="20" viewBox="0 0 20 20" fill="none" xmlns="http://www.w3.org/2000/svg">
<path fill-rule="evenodd" clip-rule="evenodd" d="M9.99996 2.29175C5.74276 2.29175 2.29163 5.74289 2.29163 10.0001C2.29163 14.2573 5.74276 17.7084 9.99996 17.7084C14.2572 17.7084 17.7083 14.2573 17.7083 10.0001C17.7083 5.74289 14.2572 2.29175 9.99996 2.29175ZM1.04163 10.0001C1.04163 5.05253 5.05241 1.04175 9.99996 1.04175C14.9475 1.04175 18.9583 5.05253 18.9583 10.0001C18.9583 14.9476 14.9475 18.9584 9.99996 18.9584C5.05241 18.9584 1.04163 14.9476 1.04163 10.0001Z" fill="#A0AEC0"/>
<path fill-rule="evenodd" clip-rule="evenodd" d="M6.04163 2.50008C6.04163 2.1549 6.32145 1.87508 6.66663 1.87508H7.49996C7.70092 1.87508 7.88962 1.97171 8.00708 2.13477C8.12454 2.29782 8.15643 2.50741 8.09278 2.69803C6.51068 7.43622 6.51068 12.5639 8.09278 17.3021C8.15643 17.4927 8.12454 17.7023 8.00708 17.8654C7.88962 18.0285 7.70092 18.1251 7.49996 18.1251H6.66663C6.32145 18.1251 6.04163 17.8453 6.04163 17.5001C6.04163 17.1609 6.31174 16.8849 6.64857 16.8753C5.32542 12.3885 5.32542 7.61166 6.64857 3.12483C6.31174 3.11527 6.04163 2.83922 6.04163 2.50008Z" fill="#A0AEC0"/>
<path fill-rule="evenodd" clip-rule="evenodd" d="M12.302 1.90726C12.6294 1.79793 12.9835 1.97473 13.0928 2.30213C14.7607 7.29728 14.7607 12.7029 13.0928 17.698C12.9835 18.0254 12.6294 18.2022 12.302 18.0929C11.9746 17.9836 11.7978 17.6295 11.9071 17.3021C13.4892 12.5639 13.4892 7.43622 11.9071 2.69803C11.7978 2.37062 11.9746 2.01658 12.302 1.90726Z" fill="#A0AEC0"/>
<path fill-rule="evenodd" clip-rule="evenodd" d="M2.13465 11.993C2.2977 11.8755 2.50729 11.8436 2.69791 11.9073C7.4361 13.4894 12.5638 13.4894 17.302 11.9073C17.4926 11.8436 17.7022 11.8755 17.8653 11.993C18.0283 12.1104 18.125 12.2991 18.125 12.5001V13.3334C18.125 13.6786 17.8451 13.9584 17.5 13.9584C17.1608 13.9584 16.8848 13.6883 16.8752 13.3515C12.3884 14.6746 7.61154 14.6746 3.1247 13.3515C3.11515 13.6883 2.8391 13.9584 2.49996 13.9584C2.15478 13.9584 1.87496 13.6786 1.87496 13.3334V12.5001C1.87496 12.2991 1.97159 12.1104 2.13465 11.993Z" fill="#A0AEC0"/>
<path fill-rule="evenodd" clip-rule="evenodd" d="M17.302 8.09291C12.5638 6.51081 7.4361 6.51081 2.69791 8.09291C2.3705 8.20223 2.01646 8.02544 1.90713 7.69803C1.79781 7.37062 1.9746 7.01658 2.30201 6.90726C7.29716 5.23936 12.7028 5.23936 17.6979 6.90726C18.0253 7.01658 18.2021 7.37062 18.0928 7.69803C17.9835 8.02544 17.6294 8.20223 17.302 8.09291Z" fill="#A0AEC0"/>
</svg>
