<svg width="20" height="20" viewBox="0 0 20 20" fill="none" xmlns="http://www.w3.org/2000/svg">
<path fill-rule="evenodd" clip-rule="evenodd" d="M10 2.2915C5.74281 2.2915 2.29167 5.74264 2.29167 9.99984C2.29167 14.257 5.74281 17.7082 10 17.7082C14.2572 17.7082 17.7083 14.257 17.7083 9.99984C17.7083 5.74264 14.2572 2.2915 10 2.2915ZM1.04167 9.99984C1.04167 5.05229 5.05245 1.0415 10 1.0415C14.9476 1.0415 18.9583 5.05229 18.9583 9.99984C18.9583 14.9474 14.9476 18.9582 10 18.9582C5.05245 18.9582 1.04167 14.9474 1.04167 9.99984Z" fill="#A0AEC0"/>
<path fill-rule="evenodd" clip-rule="evenodd" d="M6.04167 2.49984C6.04167 2.15466 6.32149 1.87484 6.66667 1.87484H7.50001C7.70096 1.87484 7.88966 1.97147 8.00713 2.13452C8.12459 2.29758 8.15648 2.50717 8.09283 2.69778C6.51073 7.43597 6.51073 12.5637 8.09283 17.3019C8.15648 17.4925 8.12459 17.7021 8.00713 17.8652C7.88966 18.0282 7.70096 18.1248 7.50001 18.1248H6.66667C6.32149 18.1248 6.04167 17.845 6.04167 17.4998C6.04167 17.1607 6.31179 16.8847 6.64862 16.8751C5.32547 12.3883 5.32547 7.61141 6.64861 3.12458C6.31179 3.11503 6.04167 2.83898 6.04167 2.49984Z" fill="#A0AEC0"/>
<path fill-rule="evenodd" clip-rule="evenodd" d="M12.3021 1.90701C12.6295 1.79769 12.9835 1.97448 13.0928 2.30189C14.7607 7.29704 14.7607 12.7026 13.0928 17.6978C12.9835 18.0252 12.6295 18.202 12.3021 18.0927C11.9747 17.9833 11.7979 17.6293 11.9072 17.3019C13.4893 12.5637 13.4893 7.43597 11.9072 2.69778C11.7979 2.37038 11.9747 2.01633 12.3021 1.90701Z" fill="#A0AEC0"/>
<path fill-rule="evenodd" clip-rule="evenodd" d="M2.13469 11.9927C2.29775 11.8753 2.50734 11.8434 2.69795 11.907C7.43614 13.4891 12.5639 13.4891 17.3021 11.907C17.4927 11.8434 17.7023 11.8753 17.8653 11.9927C18.0284 12.1102 18.125 12.2989 18.125 12.4998V13.3332C18.125 13.6783 17.8452 13.9582 17.5 13.9582C17.1609 13.9582 16.8848 13.6881 16.8753 13.3512C12.3884 14.6744 7.61158 14.6744 3.12475 13.3512C3.11519 13.6881 2.83914 13.9582 2.50001 13.9582C2.15483 13.9582 1.87501 13.6783 1.87501 13.3332V12.4998C1.87501 12.2989 1.97164 12.1102 2.13469 11.9927Z" fill="#A0AEC0"/>
<path fill-rule="evenodd" clip-rule="evenodd" d="M17.3021 8.09266C12.5639 6.51056 7.43614 6.51056 2.69795 8.09266C2.37054 8.20199 2.0165 8.02519 1.90718 7.69778C1.79786 7.37038 1.97465 7.01634 2.30206 6.90701C7.2972 5.23911 12.7028 5.23911 17.698 6.90701C18.0254 7.01634 18.2022 7.37038 18.0928 7.69778C17.9835 8.02519 17.6295 8.20199 17.3021 8.09266Z" fill="#A0AEC0"/>
</svg>
