<svg width="20" height="20" viewBox="0 0 20 20" fill="none" xmlns="http://www.w3.org/2000/svg">
<path fill-rule="evenodd" clip-rule="evenodd" d="M10.0001 2.2915C5.74289 2.2915 2.29175 5.74264 2.29175 9.99984C2.29175 14.257 5.74289 17.7082 10.0001 17.7082C14.2573 17.7082 17.7084 14.257 17.7084 9.99984C17.7084 5.74264 14.2573 2.2915 10.0001 2.2915ZM1.04175 9.99984C1.04175 5.05229 5.05253 1.0415 10.0001 1.0415C14.9476 1.0415 18.9584 5.05229 18.9584 9.99984C18.9584 14.9474 14.9476 18.9582 10.0001 18.9582C5.05253 18.9582 1.04175 14.9474 1.04175 9.99984Z" fill="#A0AEC0"/>
<path fill-rule="evenodd" clip-rule="evenodd" d="M6.04175 2.49984C6.04175 2.15466 6.32157 1.87484 6.66675 1.87484H7.50008C7.70104 1.87484 7.88974 1.97147 8.0072 2.13452C8.12466 2.29758 8.15655 2.50717 8.09291 2.69778C6.51081 7.43597 6.51081 12.5637 8.09291 17.3019C8.15655 17.4925 8.12466 17.7021 8.0072 17.8652C7.88974 18.0282 7.70104 18.1248 7.50008 18.1248H6.66675C6.32157 18.1248 6.04175 17.845 6.04175 17.4998C6.04175 17.1607 6.31186 16.8847 6.64869 16.8751C5.32554 12.3883 5.32554 7.61141 6.64869 3.12458C6.31186 3.11503 6.04175 2.83898 6.04175 2.49984Z" fill="#A0AEC0"/>
<path fill-rule="evenodd" clip-rule="evenodd" d="M12.3021 1.90701C12.6295 1.79769 12.9836 1.97448 13.0929 2.30189C14.7608 7.29704 14.7608 12.7026 13.0929 17.6978C12.9836 18.0252 12.6295 18.202 12.3021 18.0927C11.9747 17.9833 11.7979 17.6293 11.9073 17.3019C13.4894 12.5637 13.4894 7.43597 11.9073 2.69778C11.7979 2.37038 11.9747 2.01633 12.3021 1.90701Z" fill="#A0AEC0"/>
<path fill-rule="evenodd" clip-rule="evenodd" d="M2.13477 11.9927C2.29782 11.8753 2.50741 11.8434 2.69803 11.907C7.43622 13.4891 12.5639 13.4891 17.3021 11.907C17.4927 11.8434 17.7023 11.8753 17.8654 11.9927C18.0285 12.1102 18.1251 12.2989 18.1251 12.4998V13.3332C18.1251 13.6783 17.8453 13.9582 17.5001 13.9582C17.1609 13.9582 16.8849 13.6881 16.8753 13.3512C12.3885 14.6744 7.61166 14.6744 3.12483 13.3512C3.11527 13.6881 2.83922 13.9582 2.50008 13.9582C2.1549 13.9582 1.87508 13.6783 1.87508 13.3332V12.4998C1.87508 12.2989 1.97171 12.1102 2.13477 11.9927Z" fill="#A0AEC0"/>
<path fill-rule="evenodd" clip-rule="evenodd" d="M17.3021 8.09266C12.5639 6.51056 7.43622 6.51056 2.69803 8.09266C2.37062 8.20199 2.01658 8.02519 1.90726 7.69778C1.79793 7.37038 1.97473 7.01634 2.30213 6.90701C7.29728 5.23911 12.7029 5.23911 17.698 6.90701C18.0254 7.01634 18.2022 7.37038 18.0929 7.69778C17.9836 8.02519 17.6295 8.20199 17.3021 8.09266Z" fill="#A0AEC0"/>
</svg>
