<svg width="20" height="20" viewBox="0 0 20 20" fill="none" xmlns="http://www.w3.org/2000/svg">
<path fill-rule="evenodd" clip-rule="evenodd" d="M4.99967 3.95837C4.42438 3.95837 3.95801 4.42474 3.95801 5.00004V6.66671C3.95801 7.242 4.42438 7.70837 4.99967 7.70837H14.9997C15.575 7.70837 16.0413 7.242 16.0413 6.66671V5.00004C16.0413 4.42474 15.575 3.95837 14.9997 3.95837H4.99967ZM2.70801 5.00004C2.70801 3.73439 3.73402 2.70837 4.99967 2.70837H14.9997C16.2653 2.70837 17.2913 3.73439 17.2913 5.00004V6.66671C17.2913 7.93236 16.2653 8.95837 14.9997 8.95837H4.99967C3.73402 8.95837 2.70801 7.93236 2.70801 6.66671V5.00004Z" fill="#A0AEC0"/>
<path fill-rule="evenodd" clip-rule="evenodd" d="M4.99967 12.2917C4.42438 12.2917 3.95801 12.7581 3.95801 13.3334V15C3.95801 15.5753 4.42438 16.0417 4.99967 16.0417H14.9997C15.575 16.0417 16.0413 15.5753 16.0413 15V13.3334C16.0413 12.7581 15.575 12.2917 14.9997 12.2917H4.99967ZM2.70801 13.3334C2.70801 12.0677 3.73402 11.0417 4.99967 11.0417H14.9997C16.2653 11.0417 17.2913 12.0677 17.2913 13.3334V15C17.2913 16.2657 16.2653 17.2917 14.9997 17.2917H4.99967C3.73402 17.2917 2.70801 16.2657 2.70801 15V13.3334Z" fill="#A0AEC0"/>
</svg>
