<svg width="30" height="30" viewBox="0 0 30 30" fill="none" xmlns="http://www.w3.org/2000/svg">
<path d="M11.5526 9.84589L14.0154 3.07326C14.3498 2.1537 15.6503 2.1537 15.9846 3.07326L18.4474 9.84589C18.5899 10.2378 18.8166 10.5937 19.1114 10.8886C19.4063 11.1834 19.7622 11.4101 20.1541 11.5526L26.9267 14.0154C27.8463 14.3497 27.8463 15.6503 26.9267 15.9846L20.1541 18.4474C19.7622 18.5899 19.4063 18.8166 19.1114 19.1114C18.8166 19.4063 18.5899 19.7622 18.4474 20.1541L15.9846 26.9267C15.6503 27.8463 14.3498 27.8463 14.0154 26.9267L11.5526 20.1541C11.4101 19.7622 11.1834 19.4063 10.8886 19.1114C10.5937 18.8166 10.2378 18.5899 9.84589 18.4474L3.07326 15.9846C2.15371 15.6503 2.15371 14.3497 3.07326 14.0154L9.84589 11.5526C10.2378 11.4101 10.5937 11.1834 10.8886 10.8886C11.1834 10.5937 11.4101 10.2378 11.5526 9.84589Z" fill="#BA2C73"/>
<path d="M11.3057 1.32744C11.5845 0.560696 10.9197 -0.202889 10.1437 0.0489958C5.37024 1.5984 1.5984 5.37024 0.0489958 10.1437C-0.202889 10.9197 0.560696 11.5845 1.32744 11.3057L8.18534 8.81193C8.47659 8.70602 8.70602 8.47659 8.81193 8.18534L11.3057 1.32744Z" fill="#BA2C73"/>
<path d="M19.8563 0.0489962C19.0803 -0.202889 18.4155 0.560696 18.6943 1.32744L21.1881 8.18534C21.294 8.4766 21.5234 8.70602 21.8147 8.81193L28.6726 11.3057C29.4393 11.5845 30.2029 10.9197 29.951 10.1437C28.4016 5.37024 24.6298 1.5984 19.8563 0.0489962Z" fill="#BA2C73"/>
<path d="M29.951 19.8563C30.2029 19.0803 29.4393 18.4155 28.6726 18.6943L21.8147 21.1881C21.5234 21.294 21.294 21.5234 21.1881 21.8147L18.6943 28.6726C18.4155 29.4393 19.0803 30.2029 19.8563 29.951C24.6298 28.4016 28.4016 24.6298 29.951 19.8563Z" fill="#BA2C73"/>
<path d="M10.1437 29.951C10.9197 30.2029 11.5845 29.4393 11.3057 28.6726L8.81193 21.8147C8.70602 21.5234 8.4766 21.294 8.18534 21.1881L1.32744 18.6943C0.560698 18.4155 -0.202888 19.0803 0.048997 19.8563C1.5984 24.6298 5.37024 28.4016 10.1437 29.951Z" fill="#BA2C73"/>
</svg>
