<svg width="20" height="20" viewBox="0 0 20 20" fill="none" xmlns="http://www.w3.org/2000/svg">
<path fill-rule="evenodd" clip-rule="evenodd" d="M4.16673 4.7915C3.59144 4.7915 3.12507 5.25787 3.12507 5.83317V14.1665C3.12507 14.7418 3.59144 15.2082 4.16673 15.2082H15.8334C16.4087 15.2082 16.8751 14.7418 16.8751 14.1665V5.83317C16.8751 5.25787 16.4087 4.7915 15.8334 4.7915H4.16673ZM1.87507 5.83317C1.87507 4.56752 2.90108 3.5415 4.16673 3.5415H15.8334C17.0991 3.5415 18.1251 4.56752 18.1251 5.83317V14.1665C18.1251 15.4322 17.0991 16.4582 15.8334 16.4582H4.16673C2.90108 16.4582 1.87507 15.4322 1.87507 14.1665V5.83317Z" fill="#A0AEC0"/>
<path fill-rule="evenodd" clip-rule="evenodd" d="M1.98003 5.48648C2.17151 5.19928 2.55955 5.12167 2.84675 5.31314L10.0001 10.082L17.1534 5.31314C17.4406 5.12167 17.8286 5.19928 18.0201 5.48648C18.2116 5.77369 18.134 6.16173 17.8468 6.3532L10.3468 11.3532C10.1368 11.4932 9.86332 11.4932 9.65338 11.3532L2.15338 6.3532C1.86617 6.16173 1.78856 5.77369 1.98003 5.48648Z" fill="#A0AEC0"/>
</svg>
