<svg width="20" height="20" viewBox="0 0 20 20" fill="none" xmlns="http://www.w3.org/2000/svg">
<path fill-rule="evenodd" clip-rule="evenodd" d="M4.16661 4.7915C3.59131 4.7915 3.12494 5.25787 3.12494 5.83317V14.1665C3.12494 14.7418 3.59131 15.2082 4.16661 15.2082H15.8333C16.4086 15.2082 16.8749 14.7418 16.8749 14.1665V5.83317C16.8749 5.25787 16.4086 4.7915 15.8333 4.7915H4.16661ZM1.87494 5.83317C1.87494 4.56752 2.90096 3.5415 4.16661 3.5415H15.8333C17.0989 3.5415 18.1249 4.56752 18.1249 5.83317V14.1665C18.1249 15.4322 17.0989 16.4582 15.8333 16.4582H4.16661C2.90096 16.4582 1.87494 15.4322 1.87494 14.1665V5.83317Z" fill="#A0AEC0"/>
<path fill-rule="evenodd" clip-rule="evenodd" d="M1.97991 5.48648C2.17138 5.19928 2.55943 5.12167 2.84663 5.31314L9.99994 10.082L17.1533 5.31314C17.4405 5.12167 17.8285 5.19928 18.02 5.48648C18.2114 5.77369 18.1338 6.16173 17.8466 6.3532L10.3466 11.3532C10.1367 11.4932 9.86319 11.4932 9.65326 11.3532L2.15326 6.3532C1.86605 6.16173 1.78844 5.77369 1.97991 5.48648Z" fill="#A0AEC0"/>
</svg>
