<svg width="20" height="20" viewBox="0 0 20 20" fill="none" xmlns="http://www.w3.org/2000/svg">
<path fill-rule="evenodd" clip-rule="evenodd" d="M4.16661 4.79175C3.59131 4.79175 3.12494 5.25812 3.12494 5.83341V14.1667C3.12494 14.742 3.59131 15.2084 4.16661 15.2084H15.8333C16.4086 15.2084 16.8749 14.742 16.8749 14.1667V5.83341C16.8749 5.25812 16.4086 4.79175 15.8333 4.79175H4.16661ZM1.87494 5.83341C1.87494 4.56776 2.90096 3.54175 4.16661 3.54175H15.8333C17.0989 3.54175 18.1249 4.56776 18.1249 5.83341V14.1667C18.1249 15.4324 17.0989 16.4584 15.8333 16.4584H4.16661C2.90096 16.4584 1.87494 15.4324 1.87494 14.1667V5.83341Z" fill="#A0AEC0"/>
<path fill-rule="evenodd" clip-rule="evenodd" d="M1.97991 5.48673C2.17138 5.19952 2.55943 5.12191 2.84663 5.31338L9.99994 10.0823L17.1533 5.31338C17.4405 5.12191 17.8285 5.19952 18.02 5.48673C18.2114 5.77393 18.1338 6.16198 17.8466 6.35345L10.3466 11.3534C10.1367 11.4934 9.86319 11.4934 9.65326 11.3534L2.15326 6.35345C1.86605 6.16198 1.78844 5.77393 1.97991 5.48673Z" fill="#A0AEC0"/>
</svg>
