<svg width="20" height="20" viewBox="0 0 20 20" fill="none" xmlns="http://www.w3.org/2000/svg">
<path fill-rule="evenodd" clip-rule="evenodd" d="M4.16667 4.7915C3.59138 4.7915 3.12501 5.25787 3.12501 5.83317V14.1665C3.12501 14.7418 3.59138 15.2082 4.16667 15.2082H15.8333C16.4086 15.2082 16.875 14.7418 16.875 14.1665V5.83317C16.875 5.25787 16.4086 4.7915 15.8333 4.7915H4.16667ZM1.87501 5.83317C1.87501 4.56752 2.90102 3.5415 4.16667 3.5415H15.8333C17.099 3.5415 18.125 4.56752 18.125 5.83317V14.1665C18.125 15.4322 17.099 16.4582 15.8333 16.4582H4.16667C2.90102 16.4582 1.87501 15.4322 1.87501 14.1665V5.83317Z" fill="#A0AEC0"/>
<path fill-rule="evenodd" clip-rule="evenodd" d="M1.97997 5.48648C2.17144 5.19928 2.55949 5.12167 2.84669 5.31314L10 10.082L17.1533 5.31314C17.4405 5.12167 17.8286 5.19928 18.02 5.48648C18.2115 5.77369 18.1339 6.16173 17.8467 6.3532L10.3467 11.3532C10.1368 11.4932 9.86326 11.4932 9.65332 11.3532L2.15332 6.3532C1.86611 6.16173 1.7885 5.77369 1.97997 5.48648Z" fill="#A0AEC0"/>
</svg>
