<svg width="20" height="20" viewBox="0 0 20 20" fill="none" xmlns="http://www.w3.org/2000/svg">
<path fill-rule="evenodd" clip-rule="evenodd" d="M5.23812 3.92857C4.66979 3.92857 4.12475 4.15434 3.72289 4.5562C3.32102 4.95806 3.09526 5.50311 3.09526 6.07143V11.7857C3.09526 12.354 3.32102 12.8991 3.72289 13.3009C4.12475 13.7028 4.66979 13.9286 5.23812 13.9286H7.14288C7.33232 13.9286 7.514 14.0038 7.64795 14.1378L10 16.4898L12.3521 14.1378C12.486 14.0038 12.6677 13.9286 12.8572 13.9286H14.7619C15.3302 13.9286 15.8753 13.7028 16.2772 13.3009C16.679 12.8991 16.9048 12.354 16.9048 11.7857V6.07143C16.9048 5.50311 16.679 4.95806 16.2772 4.5562C15.8753 4.15434 15.3302 3.92857 14.7619 3.92857H5.23812ZM2.71273 3.54605C3.38251 2.87627 4.29091 2.5 5.23812 2.5H14.7619C15.7091 2.5 16.6175 2.87627 17.2873 3.54605C17.9571 4.21582 18.3334 5.12423 18.3334 6.07143V11.7857C18.3334 12.7329 17.9571 13.6413 17.2873 14.3111C16.6175 14.9809 15.7091 15.3571 14.7619 15.3571H13.153L10.5051 18.0051C10.2262 18.284 9.77389 18.284 9.49494 18.0051L6.84701 15.3571H5.23812C4.29091 15.3571 3.38251 14.9809 2.71273 14.3111C2.04296 13.6413 1.66669 12.7329 1.66669 11.7857V6.07143C1.66669 5.12423 2.04296 4.21582 2.71273 3.54605ZM5.47621 7.02381C5.47621 6.62932 5.79601 6.30952 6.1905 6.30952H13.8095C14.204 6.30952 14.5238 6.62932 14.5238 7.02381C14.5238 7.4183 14.204 7.7381 13.8095 7.7381H6.1905C5.79601 7.7381 5.47621 7.4183 5.47621 7.02381ZM5.47621 10.8333C5.47621 10.4388 5.79601 10.119 6.1905 10.119H11.9048C12.2993 10.119 12.6191 10.4388 12.6191 10.8333C12.6191 11.2278 12.2993 11.5476 11.9048 11.5476H6.1905C5.79601 11.5476 5.47621 11.2278 5.47621 10.8333Z" fill="white"/>
</svg>
