<svg width="20" height="20" viewBox="0 0 20 20" fill="none" xmlns="http://www.w3.org/2000/svg">
<path fill-rule="evenodd" clip-rule="evenodd" d="M5.23805 3.92857C4.66973 3.92857 4.12469 4.15434 3.72283 4.5562C3.32096 4.95806 3.0952 5.50311 3.0952 6.07143V11.7857C3.0952 12.354 3.32096 12.8991 3.72283 13.3009C4.12469 13.7028 4.66973 13.9286 5.23805 13.9286H7.14282C7.33226 13.9286 7.51394 14.0038 7.64789 14.1378L9.99996 16.4898L12.352 14.1378C12.486 14.0038 12.6677 13.9286 12.8571 13.9286H14.7619C15.3302 13.9286 15.8752 13.7028 16.2771 13.3009C16.679 12.8991 16.9047 12.354 16.9047 11.7857V6.07143C16.9047 5.50311 16.679 4.95806 16.2771 4.5562C15.8752 4.15434 15.3302 3.92857 14.7619 3.92857H5.23805ZM2.71267 3.54605C3.38245 2.87627 4.29085 2.5 5.23805 2.5H14.7619C15.7091 2.5 16.6175 2.87627 17.2872 3.54605C17.957 4.21582 18.3333 5.12423 18.3333 6.07143V11.7857C18.3333 12.7329 17.957 13.6413 17.2872 14.3111C16.6175 14.9809 15.7091 15.3571 14.7619 15.3571H13.153L10.505 18.0051C10.2261 18.284 9.77383 18.284 9.49488 18.0051L6.84695 15.3571H5.23805C4.29085 15.3571 3.38245 14.9809 2.71267 14.3111C2.0429 13.6413 1.66663 12.7329 1.66663 11.7857V6.07143C1.66663 5.12423 2.0429 4.21582 2.71267 3.54605ZM5.47615 7.02381C5.47615 6.62932 5.79595 6.30952 6.19044 6.30952H13.8095C14.204 6.30952 14.5238 6.62932 14.5238 7.02381C14.5238 7.4183 14.204 7.7381 13.8095 7.7381H6.19044C5.79595 7.7381 5.47615 7.4183 5.47615 7.02381ZM5.47615 10.8333C5.47615 10.4388 5.79595 10.119 6.19044 10.119H11.9047C12.2992 10.119 12.619 10.4388 12.619 10.8333C12.619 11.2278 12.2992 11.5476 11.9047 11.5476H6.19044C5.79595 11.5476 5.47615 11.2278 5.47615 10.8333Z" fill="white"/>
</svg>
