<svg width="20" height="20" viewBox="0 0 20 20" fill="none" xmlns="http://www.w3.org/2000/svg">
<path fill-rule="evenodd" clip-rule="evenodd" d="M5.23818 3.92857C4.66986 3.92857 4.12481 4.15434 3.72295 4.5562C3.32108 4.95806 3.09532 5.50311 3.09532 6.07143V11.7857C3.09532 12.354 3.32108 12.8991 3.72295 13.3009C4.12481 13.7028 4.66986 13.9286 5.23818 13.9286H7.14294C7.33238 13.9286 7.51406 14.0038 7.64802 14.1378L10.0001 16.4898L12.3521 14.1378C12.4861 14.0038 12.6678 13.9286 12.8572 13.9286H14.762C15.3303 13.9286 15.8754 13.7028 16.2772 13.3009C16.6791 12.8991 16.9048 12.354 16.9048 11.7857V6.07143C16.9048 5.50311 16.6791 4.95806 16.2772 4.5562C15.8754 4.15434 15.3303 3.92857 14.762 3.92857H5.23818ZM2.7128 3.54605C3.38257 2.87627 4.29097 2.5 5.23818 2.5H14.762C15.7092 2.5 16.6176 2.87627 17.2874 3.54605C17.9571 4.21582 18.3334 5.12423 18.3334 6.07143V11.7857C18.3334 12.7329 17.9571 13.6413 17.2874 14.3111C16.6176 14.9809 15.7092 15.3571 14.762 15.3571H13.1531L10.5052 18.0051C10.2262 18.284 9.77395 18.284 9.49501 18.0051L6.84707 15.3571H5.23818C4.29098 15.3571 3.38257 14.9809 2.7128 14.3111C2.04302 13.6413 1.66675 12.7329 1.66675 11.7857V6.07143C1.66675 5.12423 2.04302 4.21582 2.7128 3.54605ZM5.47627 7.02381C5.47627 6.62932 5.79607 6.30952 6.19056 6.30952H13.8096C14.2041 6.30952 14.5239 6.62932 14.5239 7.02381C14.5239 7.4183 14.2041 7.7381 13.8096 7.7381H6.19056C5.79607 7.7381 5.47627 7.4183 5.47627 7.02381ZM5.47627 10.8333C5.47627 10.4388 5.79607 10.119 6.19056 10.119H11.9048C12.2993 10.119 12.6191 10.4388 12.6191 10.8333C12.6191 11.2278 12.2993 11.5476 11.9048 11.5476H6.19056C5.79607 11.5476 5.47627 11.2278 5.47627 10.8333Z" fill="white"/>
</svg>
