<svg width="20" height="20" viewBox="0 0 20 20" fill="none" xmlns="http://www.w3.org/2000/svg">
<path fill-rule="evenodd" clip-rule="evenodd" d="M5.23793 3.92857C4.66961 3.92857 4.12457 4.15434 3.7227 4.5562C3.32084 4.95806 3.09508 5.50311 3.09508 6.07143V11.7857C3.09508 12.354 3.32084 12.8991 3.7227 13.3009C4.12457 13.7028 4.66961 13.9286 5.23793 13.9286H7.14269C7.33213 13.9286 7.51382 14.0038 7.64777 14.1378L9.99984 16.4898L12.3519 14.1378C12.4859 14.0038 12.6675 13.9286 12.857 13.9286H14.7617C15.3301 13.9286 15.8751 13.7028 16.277 13.3009C16.6788 12.8991 16.9046 12.354 16.9046 11.7857V6.07143C16.9046 5.50311 16.6788 4.95806 16.277 4.5562C15.8751 4.15434 15.3301 3.92857 14.7617 3.92857H5.23793ZM2.71255 3.54605C3.38232 2.87627 4.29073 2.5 5.23793 2.5H14.7617C15.7089 2.5 16.6174 2.87627 17.2871 3.54605C17.9569 4.21582 18.3332 5.12423 18.3332 6.07143V11.7857C18.3332 12.7329 17.9569 13.6413 17.2871 14.3111C16.6174 14.9809 15.7089 15.3571 14.7617 15.3571H13.1528L10.5049 18.0051C10.226 18.284 9.77371 18.284 9.49476 18.0051L6.84683 15.3571H5.23793C4.29073 15.3571 3.38232 14.9809 2.71255 14.3111C2.04278 13.6413 1.6665 12.7329 1.6665 11.7857V6.07143C1.6665 5.12423 2.04278 4.21582 2.71255 3.54605ZM5.47603 7.02381C5.47603 6.62932 5.79582 6.30952 6.19031 6.30952H13.8094C14.2039 6.30952 14.5236 6.62932 14.5236 7.02381C14.5236 7.4183 14.2039 7.7381 13.8094 7.7381H6.19031C5.79582 7.7381 5.47603 7.4183 5.47603 7.02381ZM5.47603 10.8333C5.47603 10.4388 5.79582 10.119 6.19031 10.119H11.9046C12.2991 10.119 12.6189 10.4388 12.6189 10.8333C12.6189 11.2278 12.2991 11.5476 11.9046 11.5476H6.19031C5.79582 11.5476 5.47603 11.2278 5.47603 10.8333Z" fill="white"/>
</svg>
