<svg width="20" height="20" viewBox="0 0 20 20" fill="none" xmlns="http://www.w3.org/2000/svg">
<path fill-rule="evenodd" clip-rule="evenodd" d="M3.23762 4.36421C2.67099 4.89036 2.2915 5.74408 2.2915 7.08329V12.9166C2.2915 14.2558 2.67099 15.1096 3.23762 15.6357C3.81263 16.1697 4.67898 16.4583 5.83317 16.4583H14.1665C15.3207 16.4583 16.187 16.1697 16.7621 15.6357C17.3287 15.1096 17.7082 14.2558 17.7082 12.9166V7.08329C17.7082 5.74408 17.3287 4.89036 16.7621 4.36421C16.187 3.83026 15.3207 3.54163 14.1665 3.54163H5.83317C4.67898 3.54163 3.81263 3.83026 3.23762 4.36421ZM2.38706 3.44821C3.27038 2.62799 4.48736 2.29163 5.83317 2.29163H14.1665C15.5123 2.29163 16.7293 2.62799 17.6126 3.44821C18.5043 4.27623 18.9582 5.50583 18.9582 7.08329V12.9166C18.9582 14.4941 18.5043 15.7237 17.6126 16.5517C16.7293 17.3719 15.5123 17.7083 14.1665 17.7083H5.83317C4.48736 17.7083 3.27038 17.3719 2.38706 16.5517C1.49535 15.7237 1.0415 14.4941 1.0415 12.9166V7.08329C1.0415 5.50583 1.49535 4.27623 2.38706 3.44821ZM9.99984 8.12496C8.9643 8.12496 8.12484 8.96443 8.12484 9.99996C8.12484 11.0355 8.9643 11.875 9.99984 11.875C11.0354 11.875 11.8748 11.0355 11.8748 9.99996C11.8748 8.96443 11.0354 8.12496 9.99984 8.12496ZM6.87484 9.99996C6.87484 8.27407 8.27395 6.87496 9.99984 6.87496C11.7257 6.87496 13.1248 8.27407 13.1248 9.99996C13.1248 11.7258 11.7257 13.125 9.99984 13.125C8.27395 13.125 6.87484 11.7258 6.87484 9.99996ZM4.58317 7.29163C4.92835 7.29163 5.20817 7.57145 5.20817 7.91663V12.0833C5.20817 12.4285 4.92835 12.7083 4.58317 12.7083C4.23799 12.7083 3.95817 12.4285 3.95817 12.0833V7.91663C3.95817 7.57145 4.23799 7.29163 4.58317 7.29163ZM15.4165 7.29163C15.7617 7.29163 16.0415 7.57145 16.0415 7.91663V12.0833C16.0415 12.4285 15.7617 12.7083 15.4165 12.7083C15.0713 12.7083 14.7915 12.4285 14.7915 12.0833V7.91663C14.7915 7.57145 15.0713 7.29163 15.4165 7.29163Z" fill="#A0AEC0"/>
</svg>
