<svg width="20" height="20" viewBox="0 0 20 20" fill="none" xmlns="http://www.w3.org/2000/svg">
<path fill-rule="evenodd" clip-rule="evenodd" d="M3.23811 4.36421C2.67148 4.89036 2.29199 5.74408 2.29199 7.08329V12.9166C2.29199 14.2558 2.67148 15.1096 3.23811 15.6357C3.81312 16.1697 4.67947 16.4583 5.83366 16.4583H14.167C15.3212 16.4583 16.1875 16.1697 16.7625 15.6357C17.3292 15.1096 17.7087 14.2558 17.7087 12.9166V7.08329C17.7087 5.74408 17.3292 4.89036 16.7625 4.36421C16.1875 3.83026 15.3212 3.54163 14.167 3.54163H5.83366C4.67947 3.54163 3.81312 3.83026 3.23811 4.36421ZM2.38754 3.44821C3.27086 2.62799 4.48785 2.29163 5.83366 2.29163H14.167C15.5128 2.29163 16.7298 2.62799 17.6131 3.44821C18.5048 4.27623 18.9587 5.50583 18.9587 7.08329V12.9166C18.9587 14.4941 18.5048 15.7237 17.6131 16.5517C16.7298 17.3719 15.5128 17.7083 14.167 17.7083H5.83366C4.48785 17.7083 3.27086 17.3719 2.38754 16.5517C1.49584 15.7237 1.04199 14.4941 1.04199 12.9166V7.08329C1.04199 5.50583 1.49584 4.27623 2.38754 3.44821ZM10.0003 8.12496C8.96479 8.12496 8.12533 8.96443 8.12533 9.99996C8.12533 11.0355 8.96479 11.875 10.0003 11.875C11.0359 11.875 11.8753 11.0355 11.8753 9.99996C11.8753 8.96443 11.0359 8.12496 10.0003 8.12496ZM6.87533 9.99996C6.87533 8.27407 8.27444 6.87496 10.0003 6.87496C11.7262 6.87496 13.1253 8.27407 13.1253 9.99996C13.1253 11.7258 11.7262 13.125 10.0003 13.125C8.27444 13.125 6.87533 11.7258 6.87533 9.99996ZM4.58366 7.29163C4.92884 7.29163 5.20866 7.57145 5.20866 7.91663V12.0833C5.20866 12.4285 4.92884 12.7083 4.58366 12.7083C4.23848 12.7083 3.95866 12.4285 3.95866 12.0833V7.91663C3.95866 7.57145 4.23848 7.29163 4.58366 7.29163ZM15.417 7.29163C15.7622 7.29163 16.042 7.57145 16.042 7.91663V12.0833C16.042 12.4285 15.7622 12.7083 15.417 12.7083C15.0718 12.7083 14.792 12.4285 14.792 12.0833V7.91663C14.792 7.57145 15.0718 7.29163 15.417 7.29163Z" fill="#A0AEC0"/>
</svg>
