<svg width="16" height="17" viewBox="0 0 16 17" fill="none" xmlns="http://www.w3.org/2000/svg">
<path d="M14.3534 11.12C14.2467 10.94 13.9467 10.66 13.2 10.7933C12.7867 10.8667 12.3667 10.9 11.9467 10.88C10.3934 10.8133 8.98672 10.1 8.00672 9C7.14005 8.03333 6.60672 6.77333 6.60005 5.41333C6.60005 4.65333 6.74672 3.92 7.04672 3.22666C7.34005 2.55333 7.13338 2.2 6.98672 2.05333C6.83338 1.9 6.47338 1.68666 5.76672 1.98C3.04005 3.12666 1.35338 5.86 1.55338 8.78666C1.75338 11.54 3.68672 13.8933 6.24672 14.78C6.86005 14.9933 7.50672 15.12 8.17338 15.1467C8.28005 15.1533 8.38672 15.16 8.49338 15.16C10.7267 15.16 12.82 14.1067 14.14 12.3133C14.5867 11.6933 14.4667 11.3 14.3534 11.12Z" fill="#A0AEC0"/>
</svg>
