<svg width="16" height="17" viewBox="0 0 16 17" fill="none" xmlns="http://www.w3.org/2000/svg">
<path d="M14.3533 11.1202C14.2467 10.9402 13.9467 10.6602 13.2 10.7936C12.7867 10.8669 12.3667 10.9002 11.9467 10.8802C10.3933 10.8136 8.98665 10.1002 8.00666 9.00024C7.13999 8.03357 6.60665 6.77357 6.59999 5.41357C6.59999 4.65357 6.74665 3.92024 7.04665 3.22691C7.33999 2.55357 7.13332 2.20024 6.98665 2.05357C6.83332 1.90024 6.47332 1.68691 5.76665 1.98024C3.03999 3.12691 1.35332 5.86024 1.55332 8.78691C1.75332 11.5402 3.68666 13.8936 6.24665 14.7802C6.85999 14.9936 7.50666 15.1202 8.17332 15.1469C8.27999 15.1536 8.38665 15.1602 8.49332 15.1602C10.7267 15.1602 12.82 14.1069 14.14 12.3136C14.5867 11.6936 14.4667 11.3002 14.3533 11.1202Z" fill="#A0AEC0"/>
</svg>
