<svg width="20" height="20" viewBox="0 0 20 20" fill="none" xmlns="http://www.w3.org/2000/svg">
<path fill-rule="evenodd" clip-rule="evenodd" d="M4.16667 3.9585C3.8904 3.9585 3.62545 4.06824 3.4301 4.26359C3.23875 4.45494 3.12954 4.71306 3.12514 4.98318C3.31806 8.07365 4.63275 10.9876 6.82263 13.1775C9.01252 15.3674 11.9265 16.6821 15.017 16.875C15.2871 16.8706 15.5452 16.7614 15.7366 16.5701C15.9319 16.3747 16.0417 16.1098 16.0417 15.8335V12.9233L12.7621 11.6115L11.7859 13.2384C11.6186 13.5173 11.2653 13.6212 10.9736 13.4774C9.04056 12.5241 7.47611 10.9596 6.5228 9.02661C6.37892 8.73489 6.48286 8.38158 6.76177 8.21423L8.38869 7.23808L7.07685 3.9585H4.16667ZM2.54621 3.37971C2.97598 2.94994 3.55888 2.7085 4.16667 2.7085H7.5C7.75557 2.7085 7.98538 2.86409 8.0803 3.10138L9.74696 7.26804C9.86089 7.55287 9.75127 7.87827 9.48823 8.0361L7.91508 8.97999C8.66174 10.2678 9.73232 11.3384 11.0202 12.0851L11.9641 10.5119C12.1219 10.2489 12.4473 10.1393 12.7321 10.2532L16.8988 11.9199C17.1361 12.0148 17.2917 12.2446 17.2917 12.5002V15.8335C17.2917 16.4413 17.0502 17.0242 16.6205 17.4539C16.1907 17.8837 15.6078 18.1252 15 18.1252C14.9874 18.1252 14.9747 18.1248 14.9621 18.124C11.5591 17.9172 8.34946 16.4721 5.93875 14.0614C3.52804 11.6507 2.08295 8.44106 1.87615 5.03807C1.87538 5.02545 1.875 5.01281 1.875 5.00016C1.875 4.39238 2.11644 3.80948 2.54621 3.37971Z" fill="white"/>
</svg>
