<svg width="20" height="20" viewBox="0 0 20 20" fill="none" xmlns="http://www.w3.org/2000/svg">
<path fill-rule="evenodd" clip-rule="evenodd" d="M4.21272 2.54621C4.64249 2.11644 5.22538 1.875 5.83317 1.875H14.1665C14.7743 1.875 15.3572 2.11644 15.787 2.54621C16.2167 2.97598 16.4582 3.55888 16.4582 4.16667V17.5C16.4582 17.7228 16.3396 17.9287 16.1469 18.0406C15.9542 18.1524 15.7165 18.1532 15.5231 18.0427L12.9165 16.5532L10.3099 18.0427C10.1178 18.1524 9.8819 18.1524 9.68975 18.0427L7.08317 16.5532L4.47659 18.0427C4.28315 18.1532 4.0455 18.1524 3.8528 18.0406C3.6601 17.9287 3.5415 17.7228 3.5415 17.5V4.16667C3.5415 3.55888 3.78295 2.97598 4.21272 2.54621ZM5.83317 3.125C5.5569 3.125 5.29195 3.23475 5.0966 3.4301C4.90125 3.62545 4.7915 3.8904 4.7915 4.16667V16.423L6.77308 15.2907C6.96523 15.1809 7.20111 15.1809 7.39326 15.2907L9.99984 16.7802L12.6064 15.2907C12.7986 15.1809 13.0344 15.1809 13.2266 15.2907L15.2082 16.423V4.16667C15.2082 3.8904 15.0984 3.62545 14.9031 3.4301C14.7077 3.23475 14.4428 3.125 14.1665 3.125H5.83317ZM7.17993 6.34676C7.37529 6.15141 7.64024 6.04167 7.9165 6.04167C8.19277 6.04167 8.45772 6.15141 8.65307 6.34676C8.84843 6.54212 8.95817 6.80707 8.95817 7.08333C8.95817 7.3596 8.84843 7.62455 8.65307 7.8199C8.45772 8.01525 8.19277 8.125 7.9165 8.125C7.64024 8.125 7.37529 8.01525 7.17993 7.8199C6.98458 7.62455 6.87484 7.3596 6.87484 7.08333C6.87484 6.80707 6.98458 6.54212 7.17993 6.34676ZM12.9418 6.22472C13.1859 6.4688 13.1859 6.86453 12.9418 7.10861L7.94178 12.1086C7.6977 12.3527 7.30197 12.3527 7.0579 12.1086C6.81382 11.8645 6.81382 11.4688 7.0579 11.2247L12.0579 6.22472C12.302 5.98065 12.6977 5.98065 12.9418 6.22472ZM11.3466 10.5134C11.542 10.3181 11.8069 10.2083 12.0832 10.2083C12.3594 10.2083 12.6244 10.3181 12.8197 10.5134C13.0151 10.7088 13.1248 10.9737 13.1248 11.25C13.1248 11.5263 13.0151 11.7912 12.8197 11.9866C12.6244 12.1819 12.3594 12.2917 12.0832 12.2917C11.8069 12.2917 11.542 12.1819 11.3466 11.9866C11.1512 11.7912 11.0415 11.5263 11.0415 11.25C11.0415 10.9737 11.1512 10.7088 11.3466 10.5134Z" fill="#27A376"/>
</svg>
