<svg width="17" height="17" viewBox="0 0 17 17" fill="none" xmlns="http://www.w3.org/2000/svg">
<path d="M8.50008 13.1667C11.0774 13.1667 13.1667 11.0774 13.1667 8.50008C13.1667 5.92275 11.0774 3.83341 8.50008 3.83341C5.92275 3.83341 3.83341 5.92275 3.83341 8.50008C3.83341 11.0774 5.92275 13.1667 8.50008 13.1667Z" fill="#111827"/>
<path d="M8.50008 15.8067C8.13341 15.8067 7.83342 15.5334 7.83342 15.1667V15.1134C7.83342 14.7467 8.13341 14.4467 8.50008 14.4467C8.86675 14.4467 9.16675 14.7467 9.16675 15.1134C9.16675 15.4801 8.86675 15.8067 8.50008 15.8067ZM13.2601 13.9267C13.0867 13.9267 12.9201 13.8601 12.7867 13.7334L12.7001 13.6467C12.4401 13.3867 12.4401 12.9667 12.7001 12.7067C12.9601 12.4467 13.3801 12.4467 13.6401 12.7067L13.7267 12.7934C13.9867 13.0534 13.9867 13.4734 13.7267 13.7334C13.6001 13.8601 13.4334 13.9267 13.2601 13.9267ZM3.74008 13.9267C3.56675 13.9267 3.40008 13.8601 3.26675 13.7334C3.00675 13.4734 3.00675 13.0534 3.26675 12.7934L3.35342 12.7067C3.61342 12.4467 4.03341 12.4467 4.29341 12.7067C4.55341 12.9667 4.55341 13.3867 4.29341 13.6467L4.20675 13.7334C4.08008 13.8601 3.90675 13.9267 3.74008 13.9267ZM15.1667 9.16675H15.1134C14.7467 9.16675 14.4467 8.86675 14.4467 8.50008C14.4467 8.13341 14.7467 7.83342 15.1134 7.83342C15.4801 7.83342 15.8067 8.13341 15.8067 8.50008C15.8067 8.86675 15.5334 9.16675 15.1667 9.16675ZM1.88675 9.16675H1.83341C1.46675 9.16675 1.16675 8.86675 1.16675 8.50008C1.16675 8.13341 1.46675 7.83342 1.83341 7.83342C2.20008 7.83342 2.52675 8.13341 2.52675 8.50008C2.52675 8.86675 2.25341 9.16675 1.88675 9.16675ZM13.1734 4.49341C13.0001 4.49341 12.8334 4.42675 12.7001 4.30008C12.4401 4.04008 12.4401 3.62008 12.7001 3.36008L12.7867 3.27341C13.0467 3.01341 13.4667 3.01341 13.7267 3.27341C13.9867 3.53341 13.9867 3.95341 13.7267 4.21341L13.6401 4.30008C13.5134 4.42675 13.3467 4.49341 13.1734 4.49341ZM3.82675 4.49341C3.65341 4.49341 3.48675 4.42675 3.35342 4.30008L3.26675 4.20675C3.00675 3.94675 3.00675 3.52675 3.26675 3.26675C3.52675 3.00675 3.94675 3.00675 4.20675 3.26675L4.29341 3.35342C4.55341 3.61342 4.55341 4.03341 4.29341 4.29341C4.16675 4.42675 3.99341 4.49341 3.82675 4.49341ZM8.50008 2.52675C8.13341 2.52675 7.83342 2.25341 7.83342 1.88675V1.83341C7.83342 1.46675 8.13341 1.16675 8.50008 1.16675C8.86675 1.16675 9.16675 1.46675 9.16675 1.83341C9.16675 2.20008 8.86675 2.52675 8.50008 2.52675Z" fill="#111827"/>
</svg>
