<svg width="17" height="17" viewBox="0 0 17 17" fill="none" xmlns="http://www.w3.org/2000/svg">
<path d="M8.50002 13.1665C11.0773 13.1665 13.1667 11.0772 13.1667 8.49984C13.1667 5.92251 11.0773 3.83317 8.50002 3.83317C5.92269 3.83317 3.83335 5.92251 3.83335 8.49984C3.83335 11.0772 5.92269 13.1665 8.50002 13.1665Z" fill="#111827"/>
<path d="M8.50002 15.8065C8.13335 15.8065 7.83335 15.5332 7.83335 15.1665V15.1132C7.83335 14.7465 8.13335 14.4465 8.50002 14.4465C8.86669 14.4465 9.16669 14.7465 9.16669 15.1132C9.16669 15.4798 8.86669 15.8065 8.50002 15.8065ZM13.26 13.9265C13.0867 13.9265 12.92 13.8598 12.7867 13.7332L12.7 13.6465C12.44 13.3865 12.44 12.9665 12.7 12.7065C12.96 12.4465 13.38 12.4465 13.64 12.7065L13.7267 12.7932C13.9867 13.0532 13.9867 13.4732 13.7267 13.7332C13.6 13.8598 13.4334 13.9265 13.26 13.9265ZM3.74002 13.9265C3.56669 13.9265 3.40002 13.8598 3.26669 13.7332C3.00669 13.4732 3.00669 13.0532 3.26669 12.7932L3.35335 12.7065C3.61335 12.4465 4.03335 12.4465 4.29335 12.7065C4.55335 12.9665 4.55335 13.3865 4.29335 13.6465L4.20669 13.7332C4.08002 13.8598 3.90669 13.9265 3.74002 13.9265ZM15.1667 9.1665H15.1134C14.7467 9.1665 14.4467 8.8665 14.4467 8.49984C14.4467 8.13317 14.7467 7.83317 15.1134 7.83317C15.48 7.83317 15.8067 8.13317 15.8067 8.49984C15.8067 8.8665 15.5334 9.1665 15.1667 9.1665ZM1.88669 9.1665H1.83335C1.46669 9.1665 1.16669 8.8665 1.16669 8.49984C1.16669 8.13317 1.46669 7.83317 1.83335 7.83317C2.20002 7.83317 2.52669 8.13317 2.52669 8.49984C2.52669 8.8665 2.25335 9.1665 1.88669 9.1665ZM13.1734 4.49317C13 4.49317 12.8334 4.4265 12.7 4.29984C12.44 4.03984 12.44 3.61984 12.7 3.35984L12.7867 3.27317C13.0467 3.01317 13.4667 3.01317 13.7267 3.27317C13.9867 3.53317 13.9867 3.95317 13.7267 4.21317L13.64 4.29984C13.5134 4.4265 13.3467 4.49317 13.1734 4.49317ZM3.82669 4.49317C3.65335 4.49317 3.48669 4.4265 3.35335 4.29984L3.26669 4.2065C3.00669 3.9465 3.00669 3.5265 3.26669 3.2665C3.52669 3.0065 3.94669 3.0065 4.20669 3.2665L4.29335 3.35317C4.55335 3.61317 4.55335 4.03317 4.29335 4.29317C4.16669 4.4265 3.99335 4.49317 3.82669 4.49317ZM8.50002 2.5265C8.13335 2.5265 7.83335 2.25317 7.83335 1.8865V1.83317C7.83335 1.4665 8.13335 1.1665 8.50002 1.1665C8.86669 1.1665 9.16669 1.4665 9.16669 1.83317C9.16669 2.19984 8.86669 2.5265 8.50002 2.5265Z" fill="#111827"/>
</svg>
