<svg width="20" height="20" viewBox="0 0 20 20" fill="none" xmlns="http://www.w3.org/2000/svg">
<path fill-rule="evenodd" clip-rule="evenodd" d="M13.3876 3.2217L17.1721 6.98954C18.9639 8.79103 18.9656 11.7025 17.1709 13.4972L13.5126 17.1556L13.5114 17.1568C11.7099 18.9486 8.79842 18.9503 7.00369 17.1556L3.22869 13.3806C2.31287 12.4648 1.8218 11.2026 1.87958 9.90255L1.87968 9.90034L2.07975 5.73227C2.1792 3.75331 3.76102 2.17098 5.74988 2.08098L5.75087 2.08094L9.91303 1.88116L9.91439 1.88108C11.2096 1.81382 12.4727 2.30715 13.3876 3.2217ZM12.5037 4.10558C11.8356 3.43744 10.9157 3.08048 9.97823 3.12945L9.9756 3.12959L5.80893 3.32959L5.80706 3.32967C4.46327 3.39014 3.39573 4.45728 3.32821 5.79435L3.12835 9.95805L3.1283 9.9591C3.08639 10.9087 3.4453 11.8294 4.11257 12.4967L7.88757 16.2717C9.19265 17.5768 11.3141 17.5787 12.6293 16.2711L16.287 12.6134C17.592 11.3084 17.594 9.18734 16.2868 7.87208L16.2858 7.87106L12.5047 4.10655L12.5037 4.10558Z" fill="white"/>
<path fill-rule="evenodd" clip-rule="evenodd" d="M8.1123 6.64697C7.30688 6.64697 6.65396 7.29989 6.65396 8.1053C6.65396 8.91072 7.30688 9.56364 8.1123 9.56364C8.91771 9.56364 9.57063 8.91072 9.57063 8.1053C9.57063 7.29989 8.91771 6.64697 8.1123 6.64697ZM5.40396 8.1053C5.40396 6.60953 6.61653 5.39697 8.1123 5.39697C9.60807 5.39697 10.8206 6.60953 10.8206 8.1053C10.8206 9.60107 9.60807 10.8136 8.1123 10.8136C6.61653 10.8136 5.40396 9.60107 5.40396 8.1053Z" fill="white"/>
<path fill-rule="evenodd" clip-rule="evenodd" d="M14.8042 10.58C15.0483 10.8241 15.0483 11.2198 14.8042 11.4639L11.4709 14.7972C11.2268 15.0413 10.8311 15.0413 10.587 14.7972C10.3429 14.5532 10.3429 14.1574 10.587 13.9134L13.9204 10.58C14.1644 10.336 14.5602 10.336 14.8042 10.58Z" fill="white"/>
</svg>
