<svg width="18" height="18" viewBox="0 0 18 18" fill="none" xmlns="http://www.w3.org/2000/svg">
<path fill-rule="evenodd" clip-rule="evenodd" d="M12.0488 2.89953V2.89953L15.4549 6.29059C17.0675 7.91193 17.0691 10.5323 15.4538 12.1475L12.1613 15.44L12.1602 15.4411C10.5389 17.0538 7.91858 17.0553 6.30332 15.44L2.90582 12.0425C2.08159 11.2183 1.63962 10.0823 1.69162 8.9123L1.69171 8.9103L1.87178 5.15904C1.96128 3.37798 3.38492 1.95388 5.17489 1.87288L5.17578 1.87284L8.92172 1.69304L8.92295 1.69298C10.0886 1.63244 11.2255 2.07643 12.0488 2.89953ZM11.2533 3.69502C10.652 3.0937 9.82411 2.77243 8.98041 2.81651L8.97804 2.81663L5.22804 2.99663L5.22635 2.99671C4.01694 3.05113 3.05615 4.01155 2.99539 5.21492V5.21492L2.81551 8.96225L2.81547 8.96319C2.77775 9.81781 3.10077 10.6465 3.70132 11.247L7.09882 14.6445C8.27339 15.8191 10.1827 15.8208 11.3664 14.644V14.644L14.6583 11.352C15.8328 10.1776 15.8346 8.2686 14.6582 7.08487L14.6573 7.08395L11.2542 3.6959L11.2533 3.69502Z" fill="#111827"/>
<path fill-rule="evenodd" clip-rule="evenodd" d="M7.30107 5.98227C6.57619 5.98227 5.98857 6.5699 5.98857 7.29477C5.98857 8.01965 6.57619 8.60727 7.30107 8.60727C8.02594 8.60727 8.61357 8.01965 8.61357 7.29477C8.61357 6.5699 8.02594 5.98227 7.30107 5.98227ZM4.86357 7.29477C4.86357 5.94858 5.95487 4.85727 7.30107 4.85727C8.64726 4.85727 9.73857 5.94858 9.73857 7.29477C9.73857 8.64097 8.64726 9.73227 7.30107 9.73227C5.95487 9.73227 4.86357 8.64097 4.86357 7.29477Z" fill="#111827"/>
<path fill-rule="evenodd" clip-rule="evenodd" d="M13.3238 9.52203C13.5435 9.7417 13.5435 10.0979 13.3238 10.3175L10.3238 13.3175C10.1041 13.5372 9.74799 13.5372 9.52832 13.3175C9.30865 13.0979 9.30865 12.7417 9.52832 12.522L12.5283 9.52203C12.748 9.30236 13.1041 9.30236 13.3238 9.52203Z" fill="#111827"/>
</svg>
