<svg width="24" height="20" viewBox="0 0 24 20" fill="none" xmlns="http://www.w3.org/2000/svg">
<path fill-rule="evenodd" clip-rule="evenodd" d="M3 4.99984C3 4.5396 3.44772 4.1665 4 4.1665H20C20.5523 4.1665 21 4.5396 21 4.99984C21 5.46007 20.5523 5.83317 20 5.83317H4C3.44772 5.83317 3 5.46007 3 4.99984Z" fill="#111827"/>
<path fill-rule="evenodd" clip-rule="evenodd" d="M6 8.33317C6 7.87293 6.44772 7.49984 7 7.49984H17C17.5523 7.49984 18 7.87293 18 8.33317C18 8.79341 17.5523 9.1665 17 9.1665H7C6.44772 9.1665 6 8.79341 6 8.33317Z" fill="#111827"/>
<path fill-rule="evenodd" clip-rule="evenodd" d="M3 11.6665C3 11.2063 3.44772 10.8332 4 10.8332H20C20.5523 10.8332 21 11.2063 21 11.6665C21 12.1267 20.5523 12.4998 20 12.4998H4C3.44772 12.4998 3 12.1267 3 11.6665Z" fill="#111827"/>
<path fill-rule="evenodd" clip-rule="evenodd" d="M6 14.9998C6 14.5396 6.44772 14.1665 7 14.1665H17C17.5523 14.1665 18 14.5396 18 14.9998C18 15.4601 17.5523 15.8332 17 15.8332H7C6.44772 15.8332 6 15.4601 6 14.9998Z" fill="#111827"/>
</svg>
