<svg width="20" height="20" viewBox="0 0 20 20" fill="none" xmlns="http://www.w3.org/2000/svg">
<path fill-rule="evenodd" clip-rule="evenodd" d="M10.0003 16.667C13.6822 16.667 16.667 13.6822 16.667 10.0003C16.667 6.31843 13.6822 3.33366 10.0003 3.33366C6.31843 3.33366 3.33366 6.31843 3.33366 10.0003C3.33366 13.6822 6.31843 16.667 10.0003 16.667ZM10.0003 18.3337C14.6027 18.3337 18.3337 14.6027 18.3337 10.0003C18.3337 5.39795 14.6027 1.66699 10.0003 1.66699C5.39795 1.66699 1.66699 5.39795 1.66699 10.0003C1.66699 14.6027 5.39795 18.3337 10.0003 18.3337Z" fill="white"/>
<path fill-rule="evenodd" clip-rule="evenodd" d="M5.84672 10.9034C6.26846 10.7191 6.75972 10.9116 6.94399 11.3333C7.45912 12.5124 8.63474 13.3337 10.0003 13.3337C11.3659 13.3337 12.5415 12.5124 13.0567 11.3333C13.2409 10.9116 13.7322 10.7191 14.1539 10.9034C14.5757 11.0876 14.7682 11.5789 14.5839 12.0006C13.8131 13.7648 12.0519 15.0003 10.0003 15.0003C7.94871 15.0003 6.18753 13.7648 5.41674 12.0006C5.23247 11.5789 5.42498 11.0876 5.84672 10.9034Z" fill="white"/>
<path d="M7.50033 7.50033C7.50033 7.96056 7.12723 8.33366 6.66699 8.33366C6.20676 8.33366 5.83366 7.96056 5.83366 7.50033C5.83366 7.04009 6.20676 6.66699 6.66699 6.66699C7.12723 6.66699 7.50033 7.04009 7.50033 7.50033Z" fill="white"/>
<path d="M14.167 7.50033C14.167 7.96056 13.7939 8.33366 13.3337 8.33366C12.8734 8.33366 12.5003 7.96056 12.5003 7.50033C12.5003 7.04009 12.8734 6.66699 13.3337 6.66699C13.7939 6.66699 14.167 7.04009 14.167 7.50033Z" fill="white"/>
</svg>
