<svg width="20" height="20" viewBox="0 0 20 20" fill="none" xmlns="http://www.w3.org/2000/svg">
<path fill-rule="evenodd" clip-rule="evenodd" d="M9.99999 16.6665C13.6819 16.6665 16.6667 13.6817 16.6667 9.99984C16.6667 6.31794 13.6819 3.33317 9.99999 3.33317C6.31809 3.33317 3.33332 6.31794 3.33332 9.99984C3.33332 13.6817 6.31809 16.6665 9.99999 16.6665ZM9.99999 18.3332C14.6024 18.3332 18.3333 14.6022 18.3333 9.99984C18.3333 5.39746 14.6024 1.6665 9.99999 1.6665C5.39762 1.6665 1.66666 5.39746 1.66666 9.99984C1.66666 14.6022 5.39762 18.3332 9.99999 18.3332Z" fill="#111827"/>
<path fill-rule="evenodd" clip-rule="evenodd" d="M5.84638 10.9029C6.26812 10.7186 6.75939 10.9111 6.94366 11.3329C7.45879 12.5119 8.63441 13.3332 9.99999 13.3332C11.3656 13.3332 12.5412 12.5119 13.0563 11.3329C13.2406 10.9111 13.7319 10.7186 14.1536 10.9029C14.5753 11.0871 14.7678 11.5784 14.5836 12.0001C13.8128 13.7643 12.0516 14.9998 9.99999 14.9998C7.94838 14.9998 6.18719 13.7643 5.4164 12.0001C5.23213 11.5784 5.42464 11.0871 5.84638 10.9029Z" fill="#111827"/>
<path d="M7.49999 7.49984C7.49999 7.96008 7.12689 8.33317 6.66666 8.33317C6.20642 8.33317 5.83332 7.96008 5.83332 7.49984C5.83332 7.0396 6.20642 6.6665 6.66666 6.6665C7.12689 6.6665 7.49999 7.0396 7.49999 7.49984Z" fill="#111827"/>
<path d="M14.1667 7.49984C14.1667 7.96008 13.7936 8.33317 13.3333 8.33317C12.8731 8.33317 12.5 7.96008 12.5 7.49984C12.5 7.0396 12.8731 6.6665 13.3333 6.6665C13.7936 6.6665 14.1667 7.0396 14.1667 7.49984Z" fill="#111827"/>
</svg>
