<svg width="20" height="20" viewBox="0 0 20 20" fill="none" xmlns="http://www.w3.org/2000/svg">
<path fill-rule="evenodd" clip-rule="evenodd" d="M4.16667 17.4998C4.16667 17.0396 4.53977 16.6665 5.00001 16.6665H15C15.4602 16.6665 15.8333 17.0396 15.8333 17.4998C15.8333 17.9601 15.4602 18.3332 15 18.3332H5.00001C4.53977 18.3332 4.16667 17.9601 4.16667 17.4998Z" fill="#111827"/>
<path fill-rule="evenodd" clip-rule="evenodd" d="M5.00001 1.6665C5.46024 1.6665 5.83334 2.0396 5.83334 2.49984V9.1665C5.83334 11.4677 7.69882 13.3332 10 13.3332C12.3012 13.3332 14.1667 11.4677 14.1667 9.1665V2.49984C14.1667 2.0396 14.5398 1.6665 15 1.6665C15.4602 1.6665 15.8333 2.0396 15.8333 2.49984V9.1665C15.8333 12.3882 13.2217 14.9998 10 14.9998C6.77834 14.9998 4.16667 12.3882 4.16667 9.1665V2.49984C4.16667 2.0396 4.53977 1.6665 5.00001 1.6665Z" fill="#111827"/>
</svg>
