<svg width="24" height="20" viewBox="0 0 24 20" fill="none" xmlns="http://www.w3.org/2000/svg">
<path fill-rule="evenodd" clip-rule="evenodd" d="M2 10.0002C2 7.69898 4.23858 5.8335 7 5.8335H10C10.5523 5.8335 11 6.20659 11 6.66683C11 7.12707 10.5523 7.50016 10 7.50016H7C5.34315 7.50016 4 8.61945 4 10.0002C4 11.3809 5.34315 12.5002 7 12.5002H10C10.5523 12.5002 11 12.8733 11 13.3335C11 13.7937 10.5523 14.1668 10 14.1668H7C4.23858 14.1668 2 12.3013 2 10.0002Z" fill="#111827"/>
<path fill-rule="evenodd" clip-rule="evenodd" d="M13 6.66683C13 6.20659 13.4477 5.8335 14 5.8335H17C19.7614 5.8335 22 7.69898 22 10.0002C22 12.3013 19.7614 14.1668 17 14.1668H14C13.4477 14.1668 13 13.7937 13 13.3335C13 12.8733 13.4477 12.5002 14 12.5002H17C18.6569 12.5002 20 11.3809 20 10.0002C20 8.61945 18.6569 7.50016 17 7.50016H14C13.4477 7.50016 13 7.12707 13 6.66683Z" fill="#111827"/>
<path fill-rule="evenodd" clip-rule="evenodd" d="M7.99998 10.0002C7.99998 9.53993 8.4477 9.16683 8.99998 9.16683H15C15.5523 9.16683 16 9.53993 16 10.0002C16 10.4604 15.5523 10.8335 15 10.8335H8.99998C8.4477 10.8335 7.99998 10.4604 7.99998 10.0002Z" fill="#111827"/>
</svg>
