<svg width="20" height="20" viewBox="0 0 20 20" fill="none" xmlns="http://www.w3.org/2000/svg">
<path fill-rule="evenodd" clip-rule="evenodd" d="M10.0002 4.37496C6.32034 4.37496 3.3335 7.3618 3.3335 11.0416C3.3335 14.7214 6.32034 17.7083 10.0002 17.7083C13.68 17.7083 16.6668 14.7214 16.6668 11.0416C16.6668 7.3618 13.68 4.37496 10.0002 4.37496ZM2.0835 11.0416C2.0835 6.67145 5.62998 3.12496 10.0002 3.12496C14.3703 3.12496 17.9168 6.67145 17.9168 11.0416C17.9168 15.4118 14.3703 18.9583 10.0002 18.9583C5.62998 18.9583 2.0835 15.4118 2.0835 11.0416Z" fill="#A0AEC0"/>
<path fill-rule="evenodd" clip-rule="evenodd" d="M10.0002 6.04163C10.3453 6.04163 10.6252 6.32145 10.6252 6.66663V10.8333C10.6252 11.1785 10.3453 11.4583 10.0002 11.4583C9.65498 11.4583 9.37516 11.1785 9.37516 10.8333V6.66663C9.37516 6.32145 9.65498 6.04163 10.0002 6.04163Z" fill="#A0AEC0"/>
<path fill-rule="evenodd" clip-rule="evenodd" d="M6.87516 1.66663C6.87516 1.32145 7.15498 1.04163 7.50016 1.04163H12.5002C12.8453 1.04163 13.1252 1.32145 13.1252 1.66663C13.1252 2.0118 12.8453 2.29163 12.5002 2.29163H7.50016C7.15498 2.29163 6.87516 2.0118 6.87516 1.66663Z" fill="#A0AEC0"/>
</svg>
