<svg width="20" height="20" viewBox="0 0 20 20" fill="none" xmlns="http://www.w3.org/2000/svg">
<path fill-rule="evenodd" clip-rule="evenodd" d="M9.99992 4.37484C6.3201 4.37484 3.33325 7.36168 3.33325 11.0415C3.33325 14.7213 6.3201 17.7082 9.99992 17.7082C13.6797 17.7082 16.6666 14.7213 16.6666 11.0415C16.6666 7.36168 13.6797 4.37484 9.99992 4.37484ZM2.08325 11.0415C2.08325 6.67133 5.62974 3.12484 9.99992 3.12484C14.3701 3.12484 17.9166 6.67133 17.9166 11.0415C17.9166 15.4117 14.3701 18.9582 9.99992 18.9582C5.62974 18.9582 2.08325 15.4117 2.08325 11.0415Z" fill="#A0AEC0"/>
<path fill-rule="evenodd" clip-rule="evenodd" d="M9.99992 6.0415C10.3451 6.0415 10.6249 6.32133 10.6249 6.6665V10.8332C10.6249 11.1783 10.3451 11.4582 9.99992 11.4582C9.65474 11.4582 9.37492 11.1783 9.37492 10.8332V6.6665C9.37492 6.32133 9.65474 6.0415 9.99992 6.0415Z" fill="#A0AEC0"/>
<path fill-rule="evenodd" clip-rule="evenodd" d="M6.87492 1.6665C6.87492 1.32133 7.15474 1.0415 7.49992 1.0415H12.4999C12.8451 1.0415 13.1249 1.32133 13.1249 1.6665C13.1249 2.01168 12.8451 2.2915 12.4999 2.2915H7.49992C7.15474 2.2915 6.87492 2.01168 6.87492 1.6665Z" fill="#A0AEC0"/>
</svg>
