<svg width="20" height="20" viewBox="0 0 20 20" fill="none" xmlns="http://www.w3.org/2000/svg">
<path fill-rule="evenodd" clip-rule="evenodd" d="M9.99998 4.37484C6.32016 4.37484 3.33331 7.36168 3.33331 11.0415C3.33331 14.7213 6.32016 17.7082 9.99998 17.7082C13.6798 17.7082 16.6666 14.7213 16.6666 11.0415C16.6666 7.36168 13.6798 4.37484 9.99998 4.37484ZM2.08331 11.0415C2.08331 6.67133 5.6298 3.12484 9.99998 3.12484C14.3702 3.12484 17.9166 6.67133 17.9166 11.0415C17.9166 15.4117 14.3702 18.9582 9.99998 18.9582C5.6298 18.9582 2.08331 15.4117 2.08331 11.0415Z" fill="#A0AEC0"/>
<path fill-rule="evenodd" clip-rule="evenodd" d="M9.99998 6.0415C10.3452 6.0415 10.625 6.32133 10.625 6.6665V10.8332C10.625 11.1783 10.3452 11.4582 9.99998 11.4582C9.6548 11.4582 9.37498 11.1783 9.37498 10.8332V6.6665C9.37498 6.32133 9.6548 6.0415 9.99998 6.0415Z" fill="#A0AEC0"/>
<path fill-rule="evenodd" clip-rule="evenodd" d="M6.87498 1.6665C6.87498 1.32133 7.1548 1.0415 7.49998 1.0415H12.5C12.8452 1.0415 13.125 1.32133 13.125 1.6665C13.125 2.01168 12.8452 2.2915 12.5 2.2915H7.49998C7.1548 2.2915 6.87498 2.01168 6.87498 1.6665Z" fill="#A0AEC0"/>
</svg>
