<svg width="20" height="20" viewBox="0 0 20 20" fill="none" xmlns="http://www.w3.org/2000/svg">
<path fill-rule="evenodd" clip-rule="evenodd" d="M10.0002 4.37533C6.32034 4.37533 3.3335 7.36217 3.3335 11.042C3.3335 14.7218 6.32034 17.7087 10.0002 17.7087C13.68 17.7087 16.6668 14.7218 16.6668 11.042C16.6668 7.36217 13.68 4.37533 10.0002 4.37533ZM2.0835 11.042C2.0835 6.67181 5.62998 3.12533 10.0002 3.12533C14.3703 3.12533 17.9168 6.67181 17.9168 11.042C17.9168 15.4122 14.3703 18.9587 10.0002 18.9587C5.62998 18.9587 2.0835 15.4122 2.0835 11.042Z" fill="#111827"/>
<path fill-rule="evenodd" clip-rule="evenodd" d="M10.0002 6.04199C10.3453 6.04199 10.6252 6.32181 10.6252 6.66699V10.8337C10.6252 11.1788 10.3453 11.4587 10.0002 11.4587C9.65498 11.4587 9.37516 11.1788 9.37516 10.8337V6.66699C9.37516 6.32181 9.65498 6.04199 10.0002 6.04199Z" fill="#111827"/>
<path fill-rule="evenodd" clip-rule="evenodd" d="M6.87516 1.66699C6.87516 1.32181 7.15498 1.04199 7.50016 1.04199H12.5002C12.8453 1.04199 13.1252 1.32181 13.1252 1.66699C13.1252 2.01217 12.8453 2.29199 12.5002 2.29199H7.50016C7.15498 2.29199 6.87516 2.01217 6.87516 1.66699Z" fill="#111827"/>
</svg>
