<svg width="16" height="17" viewBox="0 0 16 17" fill="none" xmlns="http://www.w3.org/2000/svg">
<path fill-rule="evenodd" clip-rule="evenodd" d="M6.66675 3C6.62254 3 6.58015 3.01756 6.5489 3.04882C6.51764 3.08007 6.50008 3.12246 6.50008 3.16667V4.66667H9.50008V3.16667C9.50008 3.12246 9.48252 3.08007 9.45127 3.04882C9.42001 3.01756 9.37762 3 9.33341 3H6.66675ZM3.87681 5.66667L4.49835 13.1251C4.49951 13.139 4.50008 13.1528 4.50008 13.1667C4.50008 13.3877 4.58788 13.5996 4.74416 13.7559C4.90044 13.9122 5.1124 14 5.33341 14H10.6667C10.8878 14 11.0997 13.9122 11.256 13.7559C11.4123 13.5996 11.5001 13.3877 11.5001 13.1667C11.5001 13.1528 11.5007 13.139 11.5018 13.1251L12.1233 5.66667H3.87681ZM13.1268 5.66667L12.4999 13.1891C12.4941 13.6672 12.3016 14.1245 11.9631 14.463C11.6193 14.8068 11.153 15 10.6667 15H5.33341C4.84718 15 4.38087 14.8068 4.03705 14.463C3.69853 14.1245 3.50606 13.6672 3.50022 13.1891L2.87335 5.66667H2.66675C2.39061 5.66667 2.16675 5.44281 2.16675 5.16667C2.16675 4.89052 2.39061 4.66667 2.66675 4.66667H5.50008V3.16667C5.50008 2.85725 5.623 2.5605 5.84179 2.34171C6.06058 2.12292 6.35733 2 6.66675 2H9.33341C9.64283 2 9.93958 2.12292 10.1584 2.34171C10.3772 2.5605 10.5001 2.85725 10.5001 3.16667V4.66667H13.3334C13.6096 4.66667 13.8334 4.89052 13.8334 5.16667C13.8334 5.44281 13.6096 5.66667 13.3334 5.66667H13.1268ZM6.66675 7.33333C6.94289 7.33333 7.16675 7.55719 7.16675 7.83333V11.8333C7.16675 12.1095 6.94289 12.3333 6.66675 12.3333C6.39061 12.3333 6.16675 12.1095 6.16675 11.8333V7.83333C6.16675 7.55719 6.39061 7.33333 6.66675 7.33333ZM9.33341 7.33333C9.60956 7.33333 9.83341 7.55719 9.83341 7.83333V11.8333C9.83341 12.1095 9.60956 12.3333 9.33341 12.3333C9.05727 12.3333 8.83341 12.1095 8.83341 11.8333V7.83333C8.83341 7.55719 9.05727 7.33333 9.33341 7.33333Z" fill="white"/>
</svg>
