<svg width="24" height="25" viewBox="0 0 24 25" fill="none" xmlns="http://www.w3.org/2000/svg">
<g id="users-plus">
<g id="Vector">
<path fill-rule="evenodd" clip-rule="evenodd" d="M9 4.25C7.20507 4.25 5.75 5.70507 5.75 7.5C5.75 9.29493 7.20507 10.75 9 10.75C10.7949 10.75 12.25 9.29493 12.25 7.5C12.25 5.70507 10.7949 4.25 9 4.25ZM4.25 7.5C4.25 4.87665 6.37665 2.75 9 2.75C11.6234 2.75 13.75 4.87665 13.75 7.5C13.75 10.1234 11.6234 12.25 9 12.25C6.37665 12.25 4.25 10.1234 4.25 7.5Z" fill="#A0AEC0"/>
<path fill-rule="evenodd" clip-rule="evenodd" d="M7 16.25C6.13805 16.25 5.3114 16.5924 4.7019 17.2019C4.09241 17.8114 3.75 18.638 3.75 19.5V21.5C3.75 21.9142 3.41421 22.25 3 22.25C2.58579 22.25 2.25 21.9142 2.25 21.5V19.5C2.25 18.2402 2.75044 17.032 3.64124 16.1412C4.53204 15.2504 5.74022 14.75 7 14.75H11C12.2598 14.75 13.468 15.2504 14.3588 16.1412C15.2496 17.032 15.75 18.2402 15.75 19.5V21.5C15.75 21.9142 15.4142 22.25 15 22.25C14.5858 22.25 14.25 21.9142 14.25 21.5V19.5C14.25 18.638 13.9076 17.8114 13.2981 17.2019C12.6886 16.5924 11.862 16.25 11 16.25H7Z" fill="#A0AEC0"/>
<path fill-rule="evenodd" clip-rule="evenodd" d="M18 9.75C18.4142 9.75 18.75 10.0858 18.75 10.5V14.5C18.75 14.9142 18.4142 15.25 18 15.25C17.5858 15.25 17.25 14.9142 17.25 14.5V10.5C17.25 10.0858 17.5858 9.75 18 9.75Z" fill="#A0AEC0"/>
<path fill-rule="evenodd" clip-rule="evenodd" d="M20.75 12.5C20.75 12.9142 20.4142 13.25 20 13.25H16C15.5858 13.25 15.25 12.9142 15.25 12.5C15.25 12.0858 15.5858 11.75 16 11.75H20C20.4142 11.75 20.75 12.0858 20.75 12.5Z" fill="#A0AEC0"/>
</g>
</g>
</svg>
