<svg width="27" height="27" viewBox="0 0 27 27" fill="none" xmlns="http://www.w3.org/2000/svg">
<path id="Vector" d="M13.6663 0C6.31967 0 0.333008 5.98667 0.333008 13.3333C0.333008 20.68 6.31967 26.6667 13.6663 26.6667C21.013 26.6667 26.9997 20.68 26.9997 13.3333C26.9997 5.98667 21.013 0 13.6663 0ZM18.1463 16.4C18.533 16.7867 18.533 17.4267 18.1463 17.8133C17.9463 18.0133 17.693 18.1067 17.4397 18.1067C17.1863 18.1067 16.933 18.0133 16.733 17.8133L13.6663 14.7467L10.5997 17.8133C10.3997 18.0133 10.1463 18.1067 9.89301 18.1067C9.63968 18.1067 9.38634 18.0133 9.18634 17.8133C8.79967 17.4267 8.79967 16.7867 9.18634 16.4L12.253 13.3333L9.18634 10.2667C8.79967 9.88 8.79967 9.24 9.18634 8.85333C9.57301 8.46667 10.213 8.46667 10.5997 8.85333L13.6663 11.92L16.733 8.85333C17.1197 8.46667 17.7597 8.46667 18.1463 8.85333C18.533 9.24 18.533 9.88 18.1463 10.2667L15.0797 13.3333L18.1463 16.4Z" fill="#EA1212"/>
</svg>
